<mxfile host="app.diagrams.net" modified="2023-05-05T21:08:58.433Z" agent="Mozilla/5.0 (Windows NT 10.0; Win64; x64) AppleWebKit/537.36 (KHTML, like Gecko) Chrome/111.0.0.0 Safari/537.36 OPR/97.0.0.0" etag="odgF5UYZDzGLoywrCFKM" version="21.2.7" type="device">
  <diagram name="Page-1" id="CVOMrLDaDge12nbX84c4">
    <mxGraphModel dx="6699" dy="4114" grid="1" gridSize="10" guides="1" tooltips="1" connect="1" arrows="1" fold="1" page="1" pageScale="1" pageWidth="827" pageHeight="1169" math="0" shadow="0">
      <root>
        <mxCell id="0" />
        <mxCell id="1" parent="0" />
        <mxCell id="JY-SjFJ4gWz8gs3kID2c-1" value="HORIZONGUI" style="rounded=0;whiteSpace=wrap;html=1;fillColor=#1ba1e2;fontColor=#ffffff;strokeColor=#006EAF;" parent="1" vertex="1">
          <mxGeometry x="520" y="120" width="120" height="40" as="geometry" />
        </mxCell>
        <mxCell id="JY-SjFJ4gWz8gs3kID2c-14" value="Shader" style="swimlane;fontStyle=1;align=center;verticalAlign=top;childLayout=stackLayout;horizontal=1;startSize=26;horizontalStack=0;resizeParent=1;resizeParentMax=0;resizeLast=0;collapsible=1;marginBottom=0;whiteSpace=wrap;html=1;" parent="1" vertex="1">
          <mxGeometry x="1100" y="410" width="300" height="360" as="geometry">
            <mxRectangle x="950" y="420" width="80" height="30" as="alternateBounds" />
          </mxGeometry>
        </mxCell>
        <mxCell id="JY-SjFJ4gWz8gs3kID2c-15" value="- id : GLuint" style="text;strokeColor=none;fillColor=none;align=left;verticalAlign=top;spacingLeft=4;spacingRight=4;overflow=hidden;rotatable=0;points=[[0,0.5],[1,0.5]];portConstraint=eastwest;whiteSpace=wrap;html=1;" parent="JY-SjFJ4gWz8gs3kID2c-14" vertex="1">
          <mxGeometry y="26" width="300" height="26" as="geometry" />
        </mxCell>
        <mxCell id="JY-SjFJ4gWz8gs3kID2c-16" value="" style="line;strokeWidth=1;fillColor=none;align=left;verticalAlign=middle;spacingTop=-1;spacingLeft=3;spacingRight=3;rotatable=0;labelPosition=right;points=[];portConstraint=eastwest;strokeColor=inherit;" parent="JY-SjFJ4gWz8gs3kID2c-14" vertex="1">
          <mxGeometry y="52" width="300" height="8" as="geometry" />
        </mxCell>
        <mxCell id="JY-SjFJ4gWz8gs3kID2c-17" value="+ Shader(vertexShaderPath : string, fragmentShaderPath : string)&lt;br&gt;&lt;br&gt;+ use() : Shader&lt;br&gt;+ get_id (): GLuint&lt;br&gt;&lt;br&gt;+ set_1f(uniformName : string, f : float)&lt;br&gt;+ set_1i(uniformName : string, i : int)&lt;br&gt;+ set_vec2f(uniformName : string, vec2 : glm::vec2)&lt;br&gt;+ set_vec3f(uniformName : string, vec3 : glm::vec3)&lt;br&gt;+ set_vec4f(uniformName : string, vec4 : glm::vec4)&lt;br&gt;+ set_mat4(unifromName : string, mat4 : glm::mat4&lt;br&gt;&lt;br&gt;- load_shader(vertexShaderPath : string, fragmentShaderPath : string) : GLuint&lt;br&gt;- check_compile_error(vertexShader : GLuint, fragmentShader : GLuint)&lt;br&gt;- check_linking_error(shaderProgram : GLuint)" style="text;strokeColor=none;fillColor=none;align=left;verticalAlign=top;spacingLeft=4;spacingRight=4;overflow=hidden;rotatable=0;points=[[0,0.5],[1,0.5]];portConstraint=eastwest;whiteSpace=wrap;html=1;" parent="JY-SjFJ4gWz8gs3kID2c-14" vertex="1">
          <mxGeometry y="60" width="300" height="300" as="geometry" />
        </mxCell>
        <mxCell id="JY-SjFJ4gWz8gs3kID2c-19" value="Use" style="endArrow=open;endSize=12;dashed=1;html=1;rounded=0;exitX=0.75;exitY=0;exitDx=0;exitDy=0;entryX=0.5;entryY=0;entryDx=0;entryDy=0;anchorPointDirection=1;editable=1;movable=1;resizable=1;rotatable=1;deletable=1;locked=0;connectable=1;startFill=1;" parent="1" source="JY-SjFJ4gWz8gs3kID2c-14" target="JY-SjFJ4gWz8gs3kID2c-14" edge="1">
          <mxGeometry width="160" relative="1" as="geometry">
            <mxPoint x="1330" y="670" as="sourcePoint" />
            <mxPoint x="1480" y="670" as="targetPoint" />
            <Array as="points">
              <mxPoint x="1325" y="380" />
              <mxPoint x="1250" y="380" />
            </Array>
          </mxGeometry>
        </mxCell>
        <mxCell id="JY-SjFJ4gWz8gs3kID2c-21" value="Texture" style="swimlane;fontStyle=1;align=center;verticalAlign=top;childLayout=stackLayout;horizontal=1;startSize=26;horizontalStack=0;resizeParent=1;resizeParentMax=0;resizeLast=0;collapsible=1;marginBottom=0;whiteSpace=wrap;html=1;" parent="1" vertex="1">
          <mxGeometry x="1480" y="410" width="300" height="180" as="geometry" />
        </mxCell>
        <mxCell id="JY-SjFJ4gWz8gs3kID2c-22" value="- id : GLuint" style="text;strokeColor=none;fillColor=none;align=left;verticalAlign=top;spacingLeft=4;spacingRight=4;overflow=hidden;rotatable=0;points=[[0,0.5],[1,0.5]];portConstraint=eastwest;whiteSpace=wrap;html=1;" parent="JY-SjFJ4gWz8gs3kID2c-21" vertex="1">
          <mxGeometry y="26" width="300" height="26" as="geometry" />
        </mxCell>
        <mxCell id="JY-SjFJ4gWz8gs3kID2c-23" value="" style="line;strokeWidth=1;fillColor=none;align=left;verticalAlign=middle;spacingTop=-1;spacingLeft=3;spacingRight=3;rotatable=0;labelPosition=right;points=[];portConstraint=eastwest;strokeColor=inherit;" parent="JY-SjFJ4gWz8gs3kID2c-21" vertex="1">
          <mxGeometry y="52" width="300" height="8" as="geometry" />
        </mxCell>
        <mxCell id="JY-SjFJ4gWz8gs3kID2c-24" value="+ Texture(image : Image)&lt;br&gt;&lt;br&gt;+ bind()&lt;br&gt;+ get_id()&lt;br&gt;+ get_image()&lt;br&gt;&lt;br&gt;-generate()" style="text;strokeColor=none;fillColor=none;align=left;verticalAlign=top;spacingLeft=4;spacingRight=4;overflow=hidden;rotatable=0;points=[[0,0.5],[1,0.5]];portConstraint=eastwest;whiteSpace=wrap;html=1;" parent="JY-SjFJ4gWz8gs3kID2c-21" vertex="1">
          <mxGeometry y="60" width="300" height="120" as="geometry" />
        </mxCell>
        <mxCell id="JY-SjFJ4gWz8gs3kID2c-33" value="&amp;lt;&amp;lt;&amp;lt;enumeration&amp;gt;&amp;gt;&amp;gt;&lt;br&gt;ImageChannel" style="swimlane;fontStyle=0;childLayout=stackLayout;horizontal=1;startSize=30;fillColor=none;horizontalStack=0;resizeParent=1;resizeParentMax=0;resizeLast=0;collapsible=1;marginBottom=0;whiteSpace=wrap;html=1;" parent="1" vertex="1">
          <mxGeometry x="950" y="910" width="140" height="100" as="geometry" />
        </mxCell>
        <mxCell id="JY-SjFJ4gWz8gs3kID2c-34" value="GRAYSCALE&lt;br&gt;GRAYSCALEALPHA&amp;nbsp;&lt;br&gt;RGB&lt;br&gt;RGBA" style="text;strokeColor=none;fillColor=none;align=left;verticalAlign=top;spacingLeft=4;spacingRight=4;overflow=hidden;rotatable=0;points=[[0,0.5],[1,0.5]];portConstraint=eastwest;whiteSpace=wrap;html=1;" parent="JY-SjFJ4gWz8gs3kID2c-33" vertex="1">
          <mxGeometry y="30" width="140" height="70" as="geometry" />
        </mxCell>
        <mxCell id="JY-SjFJ4gWz8gs3kID2c-37" value="&amp;lt;&amp;lt;&amp;lt;struct&amp;gt;&amp;gt;&amp;gt;&lt;br&gt;ImageData" style="swimlane;fontStyle=0;childLayout=stackLayout;horizontal=1;startSize=30;fillColor=none;horizontalStack=0;resizeParent=1;resizeParentMax=0;resizeLast=0;collapsible=1;marginBottom=0;whiteSpace=wrap;html=1;" parent="1" vertex="1">
          <mxGeometry x="1160" y="915" width="160" height="90" as="geometry" />
        </mxCell>
        <mxCell id="JY-SjFJ4gWz8gs3kID2c-38" value="+ width : int&lt;br&gt;+ height : int&lt;br&gt;+ pixels : char[]&amp;nbsp;" style="text;strokeColor=none;fillColor=none;align=left;verticalAlign=top;spacingLeft=4;spacingRight=4;overflow=hidden;rotatable=0;points=[[0,0.5],[1,0.5]];portConstraint=eastwest;whiteSpace=wrap;html=1;" parent="JY-SjFJ4gWz8gs3kID2c-37" vertex="1">
          <mxGeometry y="30" width="160" height="60" as="geometry" />
        </mxCell>
        <mxCell id="JY-SjFJ4gWz8gs3kID2c-43" value="channel" style="endArrow=block;endFill=1;html=1;edgeStyle=orthogonalEdgeStyle;align=left;verticalAlign=top;rounded=0;" parent="1" source="JY-SjFJ4gWz8gs3kID2c-38" target="JY-SjFJ4gWz8gs3kID2c-34" edge="1">
          <mxGeometry x="1" relative="1" as="geometry">
            <mxPoint x="1020" y="1045" as="sourcePoint" />
            <mxPoint x="1180" y="1045" as="targetPoint" />
            <mxPoint as="offset" />
          </mxGeometry>
        </mxCell>
        <mxCell id="JY-SjFJ4gWz8gs3kID2c-44" value="1" style="edgeLabel;resizable=0;html=1;align=left;verticalAlign=bottom;" parent="JY-SjFJ4gWz8gs3kID2c-43" connectable="0" vertex="1">
          <mxGeometry x="-1" relative="1" as="geometry">
            <mxPoint x="-59" as="offset" />
          </mxGeometry>
        </mxCell>
        <mxCell id="JY-SjFJ4gWz8gs3kID2c-45" value="Image" style="swimlane;fontStyle=1;align=center;verticalAlign=top;childLayout=stackLayout;horizontal=1;startSize=26;horizontalStack=0;resizeParent=1;resizeParentMax=0;resizeLast=0;collapsible=1;marginBottom=0;whiteSpace=wrap;html=1;" parent="1" vertex="1">
          <mxGeometry x="1520" y="915" width="260" height="190" as="geometry" />
        </mxCell>
        <mxCell id="JY-SjFJ4gWz8gs3kID2c-46" value="- path : string" style="text;strokeColor=none;fillColor=none;align=left;verticalAlign=top;spacingLeft=4;spacingRight=4;overflow=hidden;rotatable=0;points=[[0,0.5],[1,0.5]];portConstraint=eastwest;whiteSpace=wrap;html=1;" parent="JY-SjFJ4gWz8gs3kID2c-45" vertex="1">
          <mxGeometry y="26" width="260" height="26" as="geometry" />
        </mxCell>
        <mxCell id="JY-SjFJ4gWz8gs3kID2c-47" value="" style="line;strokeWidth=1;fillColor=none;align=left;verticalAlign=middle;spacingTop=-1;spacingLeft=3;spacingRight=3;rotatable=0;labelPosition=right;points=[];portConstraint=eastwest;strokeColor=inherit;" parent="JY-SjFJ4gWz8gs3kID2c-45" vertex="1">
          <mxGeometry y="52" width="260" height="8" as="geometry" />
        </mxCell>
        <mxCell id="JY-SjFJ4gWz8gs3kID2c-48" value="+ Image(imagePath : string)&lt;br&gt;+ Image(imagePath : string, data : ImageData&lt;br&gt;&lt;br&gt;+ get_data() : ImageData&lt;br&gt;+ set_data(newData : ImageData)&lt;br&gt;&lt;br&gt;+ load_image()&lt;br&gt;+ save_image()" style="text;strokeColor=none;fillColor=none;align=left;verticalAlign=top;spacingLeft=4;spacingRight=4;overflow=hidden;rotatable=0;points=[[0,0.5],[1,0.5]];portConstraint=eastwest;whiteSpace=wrap;html=1;" parent="JY-SjFJ4gWz8gs3kID2c-45" vertex="1">
          <mxGeometry y="60" width="260" height="130" as="geometry" />
        </mxCell>
        <mxCell id="JY-SjFJ4gWz8gs3kID2c-49" value="data" style="endArrow=block;endFill=1;html=1;edgeStyle=orthogonalEdgeStyle;align=left;verticalAlign=top;rounded=0;" parent="1" source="JY-SjFJ4gWz8gs3kID2c-46" target="JY-SjFJ4gWz8gs3kID2c-38" edge="1">
          <mxGeometry x="0.9095" relative="1" as="geometry">
            <mxPoint x="1620" y="1175" as="sourcePoint" />
            <mxPoint x="1780" y="1175" as="targetPoint" />
            <mxPoint as="offset" />
          </mxGeometry>
        </mxCell>
        <mxCell id="JY-SjFJ4gWz8gs3kID2c-50" value="1" style="edgeLabel;resizable=0;html=1;align=left;verticalAlign=bottom;" parent="JY-SjFJ4gWz8gs3kID2c-49" connectable="0" vertex="1">
          <mxGeometry x="-1" relative="1" as="geometry">
            <mxPoint x="-180" y="13" as="offset" />
          </mxGeometry>
        </mxCell>
        <mxCell id="JY-SjFJ4gWz8gs3kID2c-52" value="Use" style="endArrow=open;endSize=12;dashed=1;html=1;rounded=0;" parent="1" source="JY-SjFJ4gWz8gs3kID2c-48" target="JY-SjFJ4gWz8gs3kID2c-38" edge="1">
          <mxGeometry width="160" relative="1" as="geometry">
            <mxPoint x="1360" y="995" as="sourcePoint" />
            <mxPoint x="1520" y="995" as="targetPoint" />
            <Array as="points">
              <mxPoint x="1240" y="1040" />
            </Array>
          </mxGeometry>
        </mxCell>
        <mxCell id="JY-SjFJ4gWz8gs3kID2c-57" value="1" style="endArrow=open;html=1;endSize=12;startArrow=diamondThin;startSize=14;startFill=0;edgeStyle=orthogonalEdgeStyle;align=left;verticalAlign=bottom;rounded=0;" parent="1" source="JY-SjFJ4gWz8gs3kID2c-24" target="JY-SjFJ4gWz8gs3kID2c-45" edge="1">
          <mxGeometry x="0.9528" y="-20" relative="1" as="geometry">
            <mxPoint x="1480" y="690" as="sourcePoint" />
            <mxPoint x="1640" y="690" as="targetPoint" />
            <Array as="points">
              <mxPoint x="1840" y="530" />
              <mxPoint x="1840" y="753" />
              <mxPoint x="1650" y="753" />
            </Array>
            <mxPoint as="offset" />
          </mxGeometry>
        </mxCell>
        <mxCell id="JY-SjFJ4gWz8gs3kID2c-58" value="image" style="edgeLabel;html=1;align=center;verticalAlign=middle;resizable=0;points=[];" parent="JY-SjFJ4gWz8gs3kID2c-57" vertex="1" connectable="0">
          <mxGeometry x="0.8723" y="-3" relative="1" as="geometry">
            <mxPoint x="33" y="16" as="offset" />
          </mxGeometry>
        </mxCell>
        <mxCell id="JY-SjFJ4gWz8gs3kID2c-60" value="0..n" style="endArrow=open;html=1;endSize=12;startArrow=diamondThin;startSize=14;startFill=1;edgeStyle=orthogonalEdgeStyle;align=left;verticalAlign=bottom;rounded=0;entryX=0.5;entryY=0;entryDx=0;entryDy=0;" parent="1" source="JY-SjFJ4gWz8gs3kID2c-81" target="O2gDyJJrCr2cwPpWaObL-112" edge="1">
          <mxGeometry x="0.8689" y="-30" relative="1" as="geometry">
            <mxPoint x="1560" y="175" as="sourcePoint" />
            <mxPoint x="1590" y="320" as="targetPoint" />
            <mxPoint as="offset" />
          </mxGeometry>
        </mxCell>
        <mxCell id="JY-SjFJ4gWz8gs3kID2c-62" value="textures" style="edgeLabel;html=1;align=center;verticalAlign=middle;resizable=0;points=[];" parent="JY-SjFJ4gWz8gs3kID2c-60" vertex="1" connectable="0">
          <mxGeometry x="0.8361" y="-3" relative="1" as="geometry">
            <mxPoint x="33" y="-5" as="offset" />
          </mxGeometry>
        </mxCell>
        <mxCell id="JY-SjFJ4gWz8gs3kID2c-61" value="0..n" style="endArrow=open;html=1;endSize=12;startArrow=diamondThin;startSize=14;startFill=1;edgeStyle=orthogonalEdgeStyle;align=left;verticalAlign=bottom;rounded=0;entryX=0.5;entryY=0;entryDx=0;entryDy=0;" parent="1" source="JY-SjFJ4gWz8gs3kID2c-81" target="O2gDyJJrCr2cwPpWaObL-108" edge="1">
          <mxGeometry x="0.8857" y="-35" relative="1" as="geometry">
            <mxPoint x="1290" y="175" as="sourcePoint" />
            <mxPoint x="1590" y="320" as="targetPoint" />
            <mxPoint as="offset" />
          </mxGeometry>
        </mxCell>
        <mxCell id="JY-SjFJ4gWz8gs3kID2c-63" value="shaders" style="edgeLabel;html=1;align=center;verticalAlign=middle;resizable=0;points=[];" parent="JY-SjFJ4gWz8gs3kID2c-61" vertex="1" connectable="0">
          <mxGeometry x="0.7179" y="4" relative="1" as="geometry">
            <mxPoint x="31" y="19" as="offset" />
          </mxGeometry>
        </mxCell>
        <mxCell id="JY-SjFJ4gWz8gs3kID2c-64" value="CORE" style="shape=umlFrame;whiteSpace=wrap;html=1;pointerEvents=0;fillColor=#dae8fc;strokeColor=#6c8ebf;gradientColor=#7ea6e0;" parent="1" vertex="1">
          <mxGeometry x="830" width="1650" height="1200" as="geometry" />
        </mxCell>
        <mxCell id="JY-SjFJ4gWz8gs3kID2c-65" value="INPUT" style="shape=umlFrame;whiteSpace=wrap;html=1;pointerEvents=0;fillColor=#ffcd28;gradientColor=#ffa500;strokeColor=#d79b00;" parent="1" vertex="1">
          <mxGeometry x="830" y="1240" width="1650" height="1070" as="geometry" />
        </mxCell>
        <mxCell id="JY-SjFJ4gWz8gs3kID2c-66" value="&amp;lt;&amp;lt;&amp;lt;enumeration&amp;gt;&amp;gt;&amp;gt;&lt;br&gt;Action" style="swimlane;fontStyle=0;childLayout=stackLayout;horizontal=1;startSize=30;fillColor=none;horizontalStack=0;resizeParent=1;resizeParentMax=0;resizeLast=0;collapsible=1;marginBottom=0;whiteSpace=wrap;html=1;" parent="1" vertex="1">
          <mxGeometry x="1090" y="2040" width="140" height="100" as="geometry" />
        </mxCell>
        <mxCell id="JY-SjFJ4gWz8gs3kID2c-67" value="PRESS&lt;br&gt;RELEASE&lt;br&gt;REPEAT" style="text;strokeColor=none;fillColor=none;align=left;verticalAlign=top;spacingLeft=4;spacingRight=4;overflow=hidden;rotatable=0;points=[[0,0.5],[1,0.5]];portConstraint=eastwest;whiteSpace=wrap;html=1;" parent="JY-SjFJ4gWz8gs3kID2c-66" vertex="1">
          <mxGeometry y="30" width="140" height="70" as="geometry" />
        </mxCell>
        <mxCell id="JY-SjFJ4gWz8gs3kID2c-68" value="&amp;lt;&amp;lt;&amp;lt;enumeration&amp;gt;&amp;gt;&amp;gt;&lt;br&gt;KeyboardKey" style="swimlane;fontStyle=0;childLayout=stackLayout;horizontal=1;startSize=30;fillColor=none;horizontalStack=0;resizeParent=1;resizeParentMax=0;resizeLast=0;collapsible=1;marginBottom=0;whiteSpace=wrap;html=1;" parent="1" vertex="1">
          <mxGeometry x="1130" y="1680" width="140" height="140" as="geometry" />
        </mxCell>
        <mxCell id="JY-SjFJ4gWz8gs3kID2c-69" value="A&lt;br&gt;B&lt;br&gt;....&lt;br&gt;ESCAPE&lt;br&gt;SPACE&lt;br&gt;...." style="text;strokeColor=none;fillColor=none;align=left;verticalAlign=top;spacingLeft=4;spacingRight=4;overflow=hidden;rotatable=0;points=[[0,0.5],[1,0.5]];portConstraint=eastwest;whiteSpace=wrap;html=1;" parent="JY-SjFJ4gWz8gs3kID2c-68" vertex="1">
          <mxGeometry y="30" width="140" height="110" as="geometry" />
        </mxCell>
        <mxCell id="JY-SjFJ4gWz8gs3kID2c-70" value="&amp;lt;&amp;lt;&amp;lt;enumeration&amp;gt;&amp;gt;&amp;gt;&lt;br&gt;MouseButton" style="swimlane;fontStyle=0;childLayout=stackLayout;horizontal=1;startSize=30;fillColor=none;horizontalStack=0;resizeParent=1;resizeParentMax=0;resizeLast=0;collapsible=1;marginBottom=0;whiteSpace=wrap;html=1;" parent="1" vertex="1">
          <mxGeometry x="1280" y="2080" width="140" height="140" as="geometry" />
        </mxCell>
        <mxCell id="JY-SjFJ4gWz8gs3kID2c-71" value="BUTTON_0&lt;br&gt;BUTTON_1&lt;br&gt;...&lt;br&gt;LEFT_CLICK&lt;br&gt;RIGHT_CLICK" style="text;strokeColor=none;fillColor=none;align=left;verticalAlign=top;spacingLeft=4;spacingRight=4;overflow=hidden;rotatable=0;points=[[0,0.5],[1,0.5]];portConstraint=eastwest;whiteSpace=wrap;html=1;" parent="JY-SjFJ4gWz8gs3kID2c-70" vertex="1">
          <mxGeometry y="30" width="140" height="110" as="geometry" />
        </mxCell>
        <mxCell id="JY-SjFJ4gWz8gs3kID2c-72" value="&amp;lt;&amp;lt;&amp;lt;enumeration&amp;gt;&amp;gt;&amp;gt;&lt;br&gt;MouseInput" style="swimlane;fontStyle=0;childLayout=stackLayout;horizontal=1;startSize=30;fillColor=none;horizontalStack=0;resizeParent=1;resizeParentMax=0;resizeLast=0;collapsible=1;marginBottom=0;whiteSpace=wrap;html=1;" parent="1" vertex="1">
          <mxGeometry x="1440" y="2120" width="140" height="100" as="geometry" />
        </mxCell>
        <mxCell id="JY-SjFJ4gWz8gs3kID2c-73" value="SCROLL&lt;br&gt;SCROLL_UP&lt;br&gt;SCROLL_DOWN&lt;br&gt;MOTION&lt;br&gt;" style="text;strokeColor=none;fillColor=none;align=left;verticalAlign=top;spacingLeft=4;spacingRight=4;overflow=hidden;rotatable=0;points=[[0,0.5],[1,0.5]];portConstraint=eastwest;whiteSpace=wrap;html=1;" parent="JY-SjFJ4gWz8gs3kID2c-72" vertex="1">
          <mxGeometry y="30" width="140" height="70" as="geometry" />
        </mxCell>
        <mxCell id="JY-SjFJ4gWz8gs3kID2c-78" value="ResourceManager" style="swimlane;fontStyle=1;align=center;verticalAlign=top;childLayout=stackLayout;horizontal=1;startSize=26;horizontalStack=0;resizeParent=1;resizeParentMax=0;resizeLast=0;collapsible=1;marginBottom=0;whiteSpace=wrap;html=1;" parent="1" vertex="1">
          <mxGeometry x="1300" y="40" width="290" height="180" as="geometry" />
        </mxCell>
        <mxCell id="JY-SjFJ4gWz8gs3kID2c-80" value="" style="line;strokeWidth=1;fillColor=none;align=left;verticalAlign=middle;spacingTop=-1;spacingLeft=3;spacingRight=3;rotatable=0;labelPosition=right;points=[];portConstraint=eastwest;strokeColor=inherit;" parent="JY-SjFJ4gWz8gs3kID2c-78" vertex="1">
          <mxGeometry y="26" width="290" height="8" as="geometry" />
        </mxCell>
        <mxCell id="JY-SjFJ4gWz8gs3kID2c-81" value="&lt;p style=&quot;margin: 0px 0px 0px 4px;&quot;&gt;- ResourceManager()&lt;/p&gt;&lt;p style=&quot;margin: 0px 0px 0px 4px;&quot;&gt;&lt;br&gt;&lt;/p&gt;&lt;p style=&quot;margin: 0px 0px 0px 4px;&quot;&gt;+ load_shader(shaderName : string) : Shader&lt;/p&gt;&lt;p style=&quot;margin: 0px 0px 0px 4px;&quot;&gt;+ get_shader(shaderName : string) : Shader&lt;/p&gt;&lt;p style=&quot;margin: 0px 0px 0px 4px;&quot;&gt;+ delete_shader(shaderName : string[0..n])&lt;/p&gt;&lt;p style=&quot;margin: 0px 0px 0px 4px;&quot;&gt;&lt;br&gt;&lt;/p&gt;&lt;p style=&quot;margin: 0px 0px 0px 4px;&quot;&gt;+ load_texture(textureName : string) : Texture&lt;/p&gt;&lt;p style=&quot;margin: 0px 0px 0px 4px;&quot;&gt;+ get_texture(textureName : string) : texture)&lt;/p&gt;&lt;p style=&quot;margin: 0px 0px 0px 4px;&quot;&gt;+ delete_texture(textureName : string[0..n])&lt;/p&gt;" style="text;strokeColor=none;fillColor=none;align=left;verticalAlign=top;spacingLeft=4;spacingRight=4;overflow=hidden;rotatable=0;points=[[0,0.5],[1,0.5]];portConstraint=eastwest;whiteSpace=wrap;html=1;" parent="JY-SjFJ4gWz8gs3kID2c-78" vertex="1">
          <mxGeometry y="34" width="290" height="146" as="geometry" />
        </mxCell>
        <mxCell id="JY-SjFJ4gWz8gs3kID2c-82" value="KeyboardManager" style="swimlane;fontStyle=1;align=center;verticalAlign=top;childLayout=stackLayout;horizontal=1;startSize=26;horizontalStack=0;resizeParent=1;resizeParentMax=0;resizeLast=0;collapsible=1;marginBottom=0;whiteSpace=wrap;html=1;" parent="1" vertex="1">
          <mxGeometry x="1040" y="1485" width="320" height="120" as="geometry" />
        </mxCell>
        <mxCell id="JY-SjFJ4gWz8gs3kID2c-84" value="" style="line;strokeWidth=1;fillColor=none;align=left;verticalAlign=middle;spacingTop=-1;spacingLeft=3;spacingRight=3;rotatable=0;labelPosition=right;points=[];portConstraint=eastwest;strokeColor=inherit;" parent="JY-SjFJ4gWz8gs3kID2c-82" vertex="1">
          <mxGeometry y="26" width="320" height="8" as="geometry" />
        </mxCell>
        <mxCell id="JY-SjFJ4gWz8gs3kID2c-85" value="+ bind(key :&amp;nbsp; KeyboardKey, action : Action, function: &lt;span style=&quot;white-space: pre;&quot;&gt; &lt;/span&gt;Function)&lt;br&gt;+ unbind(key : KeyboardKey)&lt;br&gt;&lt;br&gt;- process()" style="text;strokeColor=none;fillColor=none;align=left;verticalAlign=top;spacingLeft=4;spacingRight=4;overflow=hidden;rotatable=0;points=[[0,0.5],[1,0.5]];portConstraint=eastwest;whiteSpace=wrap;html=1;" parent="JY-SjFJ4gWz8gs3kID2c-82" vertex="1">
          <mxGeometry y="34" width="320" height="86" as="geometry" />
        </mxCell>
        <mxCell id="JY-SjFJ4gWz8gs3kID2c-92" value="0..n" style="endArrow=open;html=1;endSize=12;startArrow=diamondThin;startSize=14;startFill=1;edgeStyle=orthogonalEdgeStyle;align=left;verticalAlign=bottom;rounded=0;" parent="1" source="JY-SjFJ4gWz8gs3kID2c-85" target="O2gDyJJrCr2cwPpWaObL-176" edge="1">
          <mxGeometry x="0.9275" y="-25" relative="1" as="geometry">
            <mxPoint x="1040" y="1639" as="sourcePoint" />
            <mxPoint x="965" y="1840" as="targetPoint" />
            <Array as="points">
              <mxPoint x="965" y="1639" />
            </Array>
            <mxPoint as="offset" />
          </mxGeometry>
        </mxCell>
        <mxCell id="JY-SjFJ4gWz8gs3kID2c-93" value="keys" style="edgeLabel;html=1;align=center;verticalAlign=middle;resizable=0;points=[];" parent="JY-SjFJ4gWz8gs3kID2c-92" vertex="1" connectable="0">
          <mxGeometry x="0.4506" relative="1" as="geometry">
            <mxPoint x="25" y="105" as="offset" />
          </mxGeometry>
        </mxCell>
        <mxCell id="JY-SjFJ4gWz8gs3kID2c-95" value="MouseManager" style="swimlane;fontStyle=1;align=center;verticalAlign=top;childLayout=stackLayout;horizontal=1;startSize=26;horizontalStack=0;resizeParent=1;resizeParentMax=0;resizeLast=0;collapsible=1;marginBottom=0;whiteSpace=wrap;html=1;" parent="1" vertex="1">
          <mxGeometry x="1400" y="1600" width="360" height="130" as="geometry" />
        </mxCell>
        <mxCell id="JY-SjFJ4gWz8gs3kID2c-96" value="" style="line;strokeWidth=1;fillColor=none;align=left;verticalAlign=middle;spacingTop=-1;spacingLeft=3;spacingRight=3;rotatable=0;labelPosition=right;points=[];portConstraint=eastwest;strokeColor=inherit;" parent="JY-SjFJ4gWz8gs3kID2c-95" vertex="1">
          <mxGeometry y="26" width="360" height="8" as="geometry" />
        </mxCell>
        <mxCell id="JY-SjFJ4gWz8gs3kID2c-97" value="+ bind(button :&amp;nbsp; MouseButton, action : Action, function: Function)&lt;br&gt;+ bind(input : MouseInput, function: Function)&lt;br&gt;+ unbind(button : MouseButton)&lt;br&gt;+ unbind(input : MouseInput)&lt;br&gt;&lt;br&gt;- process()" style="text;strokeColor=none;fillColor=none;align=left;verticalAlign=top;spacingLeft=4;spacingRight=4;overflow=hidden;rotatable=0;points=[[0,0.5],[1,0.5]];portConstraint=eastwest;whiteSpace=wrap;html=1;" parent="JY-SjFJ4gWz8gs3kID2c-95" vertex="1">
          <mxGeometry y="34" width="360" height="96" as="geometry" />
        </mxCell>
        <mxCell id="JY-SjFJ4gWz8gs3kID2c-98" value="&lt;p style=&quot;margin:0px;margin-top:6px;text-align:center;&quot;&gt;&lt;b&gt;map&lt;/b&gt;&lt;/p&gt;&lt;hr&gt;&lt;p style=&quot;margin:0px;margin-left:8px;&quot;&gt;+ function[0..1]&lt;/p&gt;" style="align=left;overflow=fill;html=1;dropTarget=0;whiteSpace=wrap;" parent="1" vertex="1">
          <mxGeometry x="1300" y="1930" width="180" height="60" as="geometry" />
        </mxCell>
        <mxCell id="JY-SjFJ4gWz8gs3kID2c-99" value="" style="shape=component;jettyWidth=8;jettyHeight=4;" parent="JY-SjFJ4gWz8gs3kID2c-98" vertex="1">
          <mxGeometry x="1" width="20" height="20" relative="1" as="geometry">
            <mxPoint x="-24" y="4" as="offset" />
          </mxGeometry>
        </mxCell>
        <mxCell id="JY-SjFJ4gWz8gs3kID2c-100" value="&lt;p style=&quot;margin:0px;margin-top:6px;text-align:center;&quot;&gt;&lt;b&gt;map&lt;/b&gt;&lt;/p&gt;&lt;hr&gt;&lt;p style=&quot;margin:0px;margin-left:8px;&quot;&gt;+ function[0..1]&lt;/p&gt;" style="align=left;overflow=fill;html=1;dropTarget=0;whiteSpace=wrap;" parent="1" vertex="1">
          <mxGeometry x="1600" y="1810" width="180" height="60" as="geometry" />
        </mxCell>
        <mxCell id="JY-SjFJ4gWz8gs3kID2c-101" value="" style="shape=component;jettyWidth=8;jettyHeight=4;" parent="JY-SjFJ4gWz8gs3kID2c-100" vertex="1">
          <mxGeometry x="1" width="20" height="20" relative="1" as="geometry">
            <mxPoint x="-24" y="4" as="offset" />
          </mxGeometry>
        </mxCell>
        <mxCell id="JY-SjFJ4gWz8gs3kID2c-102" value="n" style="endArrow=open;html=1;endSize=12;startArrow=diamondThin;startSize=14;startFill=1;edgeStyle=orthogonalEdgeStyle;align=left;verticalAlign=bottom;rounded=0;exitX=0;exitY=0.5;exitDx=0;exitDy=0;entryX=0.5;entryY=0;entryDx=0;entryDy=0;" parent="1" source="JY-SjFJ4gWz8gs3kID2c-97" target="O2gDyJJrCr2cwPpWaObL-179" edge="1">
          <mxGeometry x="0.9239" y="-20" relative="1" as="geometry">
            <mxPoint x="1380" y="1810" as="sourcePoint" />
            <mxPoint x="1540" y="1810" as="targetPoint" />
            <mxPoint as="offset" />
          </mxGeometry>
        </mxCell>
        <mxCell id="JY-SjFJ4gWz8gs3kID2c-105" value="buttons" style="edgeLabel;html=1;align=center;verticalAlign=middle;resizable=0;points=[];" parent="JY-SjFJ4gWz8gs3kID2c-102" vertex="1" connectable="0">
          <mxGeometry x="0.637" y="1" relative="1" as="geometry">
            <mxPoint x="29" y="7" as="offset" />
          </mxGeometry>
        </mxCell>
        <mxCell id="JY-SjFJ4gWz8gs3kID2c-103" value="n" style="endArrow=open;html=1;endSize=12;startArrow=diamondThin;startSize=14;startFill=1;edgeStyle=orthogonalEdgeStyle;align=left;verticalAlign=bottom;rounded=0;exitX=1;exitY=0.5;exitDx=0;exitDy=0;entryX=0.5;entryY=0;entryDx=0;entryDy=0;" parent="1" source="JY-SjFJ4gWz8gs3kID2c-97" target="JY-SjFJ4gWz8gs3kID2c-100" edge="1">
          <mxGeometry x="0.9176" y="-20" relative="1" as="geometry">
            <mxPoint x="1380" y="1810" as="sourcePoint" />
            <mxPoint x="1540" y="1810" as="targetPoint" />
            <mxPoint as="offset" />
          </mxGeometry>
        </mxCell>
        <mxCell id="JY-SjFJ4gWz8gs3kID2c-104" value="inputs" style="edgeLabel;html=1;align=center;verticalAlign=middle;resizable=0;points=[];" parent="JY-SjFJ4gWz8gs3kID2c-103" vertex="1" connectable="0">
          <mxGeometry x="0.8146" y="-1" relative="1" as="geometry">
            <mxPoint x="31" y="3" as="offset" />
          </mxGeometry>
        </mxCell>
        <mxCell id="JY-SjFJ4gWz8gs3kID2c-106" value="" style="endArrow=block;endFill=1;html=1;edgeStyle=orthogonalEdgeStyle;align=left;verticalAlign=top;rounded=0;exitX=0.25;exitY=1;exitDx=0;exitDy=0;entryX=0.5;entryY=0;entryDx=0;entryDy=0;" parent="1" source="JY-SjFJ4gWz8gs3kID2c-98" target="JY-SjFJ4gWz8gs3kID2c-70" edge="1">
          <mxGeometry x="-0.8689" y="15" relative="1" as="geometry">
            <mxPoint x="1350" y="1950" as="sourcePoint" />
            <mxPoint x="1510" y="1950" as="targetPoint" />
            <mxPoint as="offset" />
          </mxGeometry>
        </mxCell>
        <mxCell id="JY-SjFJ4gWz8gs3kID2c-107" value="0..n" style="edgeLabel;resizable=0;html=1;align=left;verticalAlign=bottom;" parent="JY-SjFJ4gWz8gs3kID2c-106" connectable="0" vertex="1">
          <mxGeometry x="-1" relative="1" as="geometry">
            <mxPoint x="-135" y="-318" as="offset" />
          </mxGeometry>
        </mxCell>
        <mxCell id="JY-SjFJ4gWz8gs3kID2c-108" value="" style="endArrow=block;endFill=1;html=1;edgeStyle=orthogonalEdgeStyle;align=left;verticalAlign=top;rounded=0;exitX=0.5;exitY=1;exitDx=0;exitDy=0;entryX=0.5;entryY=0;entryDx=0;entryDy=0;" parent="1" source="JY-SjFJ4gWz8gs3kID2c-100" target="JY-SjFJ4gWz8gs3kID2c-72" edge="1">
          <mxGeometry x="-1" relative="1" as="geometry">
            <mxPoint x="1350" y="1950" as="sourcePoint" />
            <mxPoint x="1510" y="1950" as="targetPoint" />
          </mxGeometry>
        </mxCell>
        <mxCell id="JY-SjFJ4gWz8gs3kID2c-109" value="1" style="edgeLabel;resizable=0;html=1;align=left;verticalAlign=bottom;" parent="JY-SjFJ4gWz8gs3kID2c-108" connectable="0" vertex="1">
          <mxGeometry x="-1" relative="1" as="geometry">
            <mxPoint x="-200" y="240" as="offset" />
          </mxGeometry>
        </mxCell>
        <mxCell id="JY-SjFJ4gWz8gs3kID2c-110" value="Cursor" style="swimlane;fontStyle=1;align=center;verticalAlign=top;childLayout=stackLayout;horizontal=1;startSize=26;horizontalStack=0;resizeParent=1;resizeParentMax=0;resizeLast=0;collapsible=1;marginBottom=0;whiteSpace=wrap;html=1;" parent="1" vertex="1">
          <mxGeometry x="1960" y="1880" width="160" height="140" as="geometry" />
        </mxCell>
        <mxCell id="JY-SjFJ4gWz8gs3kID2c-111" value="- cursor : GLFWcursor" style="text;strokeColor=none;fillColor=none;align=left;verticalAlign=top;spacingLeft=4;spacingRight=4;overflow=hidden;rotatable=0;points=[[0,0.5],[1,0.5]];portConstraint=eastwest;whiteSpace=wrap;html=1;" parent="JY-SjFJ4gWz8gs3kID2c-110" vertex="1">
          <mxGeometry y="26" width="160" height="44" as="geometry" />
        </mxCell>
        <mxCell id="JY-SjFJ4gWz8gs3kID2c-112" value="" style="line;strokeWidth=1;fillColor=none;align=left;verticalAlign=middle;spacingTop=-1;spacingLeft=3;spacingRight=3;rotatable=0;labelPosition=right;points=[];portConstraint=eastwest;strokeColor=inherit;" parent="JY-SjFJ4gWz8gs3kID2c-110" vertex="1">
          <mxGeometry y="70" width="160" height="8" as="geometry" />
        </mxCell>
        <mxCell id="JY-SjFJ4gWz8gs3kID2c-113" value="+ Cursor(type : CursorType, image : Image)&lt;br&gt;+ use()" style="text;strokeColor=none;fillColor=none;align=left;verticalAlign=top;spacingLeft=4;spacingRight=4;overflow=hidden;rotatable=0;points=[[0,0.5],[1,0.5]];portConstraint=eastwest;whiteSpace=wrap;html=1;" parent="JY-SjFJ4gWz8gs3kID2c-110" vertex="1">
          <mxGeometry y="78" width="160" height="62" as="geometry" />
        </mxCell>
        <mxCell id="JY-SjFJ4gWz8gs3kID2c-114" value="&amp;lt;&amp;lt;&amp;lt;enumeration&amp;gt;&amp;gt;&amp;gt;&lt;br&gt;CursorType" style="swimlane;fontStyle=0;childLayout=stackLayout;horizontal=1;startSize=30;fillColor=none;horizontalStack=0;resizeParent=1;resizeParentMax=0;resizeLast=0;collapsible=1;marginBottom=0;whiteSpace=wrap;html=1;" parent="1" vertex="1">
          <mxGeometry x="1980" y="2090" width="140" height="190" as="geometry" />
        </mxCell>
        <mxCell id="JY-SjFJ4gWz8gs3kID2c-115" value="DISABLED&lt;br&gt;ARROW&lt;br&gt;I_BEAM&lt;br&gt;CROSSHAIR&lt;br&gt;HAND&lt;br&gt;HORIZONTAL_RESIZE&lt;br&gt;VERTICAL_RESIZE&lt;br&gt;CUSTOM_1&lt;br&gt;CUSTOM_2&lt;br&gt;..." style="text;strokeColor=none;fillColor=none;align=left;verticalAlign=top;spacingLeft=4;spacingRight=4;overflow=hidden;rotatable=0;points=[[0,0.5],[1,0.5]];portConstraint=eastwest;whiteSpace=wrap;html=1;" parent="JY-SjFJ4gWz8gs3kID2c-114" vertex="1">
          <mxGeometry y="30" width="140" height="160" as="geometry" />
        </mxCell>
        <mxCell id="JY-SjFJ4gWz8gs3kID2c-116" value="CursorManager" style="swimlane;fontStyle=1;align=center;verticalAlign=top;childLayout=stackLayout;horizontal=1;startSize=26;horizontalStack=0;resizeParent=1;resizeParentMax=0;resizeLast=0;collapsible=1;marginBottom=0;whiteSpace=wrap;html=1;" parent="1" vertex="1">
          <mxGeometry x="2010" y="1440" width="360" height="130" as="geometry" />
        </mxCell>
        <mxCell id="JY-SjFJ4gWz8gs3kID2c-117" value="" style="line;strokeWidth=1;fillColor=none;align=left;verticalAlign=middle;spacingTop=-1;spacingLeft=3;spacingRight=3;rotatable=0;labelPosition=right;points=[];portConstraint=eastwest;strokeColor=inherit;" parent="JY-SjFJ4gWz8gs3kID2c-116" vertex="1">
          <mxGeometry y="26" width="360" height="24" as="geometry" />
        </mxCell>
        <mxCell id="JY-SjFJ4gWz8gs3kID2c-118" value="+ set(type : CursorType)&lt;br&gt;+ create(type : CursorType, image : Image)&lt;br&gt;+ delete(type : CursorType)&lt;br&gt;+ init_base_cursor()" style="text;strokeColor=none;fillColor=none;align=left;verticalAlign=top;spacingLeft=4;spacingRight=4;overflow=hidden;rotatable=0;points=[[0,0.5],[1,0.5]];portConstraint=eastwest;whiteSpace=wrap;html=1;" parent="JY-SjFJ4gWz8gs3kID2c-116" vertex="1">
          <mxGeometry y="50" width="360" height="80" as="geometry" />
        </mxCell>
        <mxCell id="JY-SjFJ4gWz8gs3kID2c-121" value="cursorImage" style="endArrow=block;endFill=1;html=1;edgeStyle=orthogonalEdgeStyle;align=left;verticalAlign=top;rounded=0;exitX=-0.006;exitY=0.226;exitDx=0;exitDy=0;exitPerimeter=0;" parent="1" source="JY-SjFJ4gWz8gs3kID2c-111" target="JY-SjFJ4gWz8gs3kID2c-48" edge="1">
          <mxGeometry x="0.9812" y="10" relative="1" as="geometry">
            <mxPoint x="1990" y="1420" as="sourcePoint" />
            <mxPoint x="2150" y="1420" as="targetPoint" />
            <mxPoint as="offset" />
          </mxGeometry>
        </mxCell>
        <mxCell id="JY-SjFJ4gWz8gs3kID2c-122" value="1" style="edgeLabel;resizable=0;html=1;align=left;verticalAlign=bottom;" parent="JY-SjFJ4gWz8gs3kID2c-121" connectable="0" vertex="1">
          <mxGeometry x="-1" relative="1" as="geometry">
            <mxPoint x="-159" y="-896" as="offset" />
          </mxGeometry>
        </mxCell>
        <mxCell id="JY-SjFJ4gWz8gs3kID2c-124" value="&lt;p style=&quot;margin:0px;margin-top:6px;text-align:center;&quot;&gt;&lt;b&gt;map&lt;/b&gt;&lt;/p&gt;&lt;hr&gt;&lt;p style=&quot;margin:0px;margin-left:8px;&quot;&gt;&lt;br&gt;&lt;/p&gt;&lt;p style=&quot;margin:0px;margin-left:8px;&quot;&gt;&lt;br&gt;&lt;/p&gt;" style="align=left;overflow=fill;html=1;dropTarget=0;whiteSpace=wrap;" parent="1" vertex="1">
          <mxGeometry x="2200" y="1780" width="180" height="60" as="geometry" />
        </mxCell>
        <mxCell id="JY-SjFJ4gWz8gs3kID2c-125" value="" style="shape=component;jettyWidth=8;jettyHeight=4;" parent="JY-SjFJ4gWz8gs3kID2c-124" vertex="1">
          <mxGeometry x="1" width="20" height="20" relative="1" as="geometry">
            <mxPoint x="-24" y="4" as="offset" />
          </mxGeometry>
        </mxCell>
        <mxCell id="JY-SjFJ4gWz8gs3kID2c-126" value="" style="endArrow=block;endFill=1;html=1;edgeStyle=orthogonalEdgeStyle;align=left;verticalAlign=top;rounded=0;exitX=0;exitY=0.5;exitDx=0;exitDy=0;entryX=0.75;entryY=0;entryDx=0;entryDy=0;" parent="1" source="JY-SjFJ4gWz8gs3kID2c-124" target="JY-SjFJ4gWz8gs3kID2c-110" edge="1">
          <mxGeometry x="0.8948" y="20" relative="1" as="geometry">
            <mxPoint x="2280" y="1800" as="sourcePoint" />
            <mxPoint x="2440" y="1800" as="targetPoint" />
            <mxPoint as="offset" />
          </mxGeometry>
        </mxCell>
        <mxCell id="JY-SjFJ4gWz8gs3kID2c-127" value="0..1" style="edgeLabel;resizable=0;html=1;align=left;verticalAlign=bottom;" parent="JY-SjFJ4gWz8gs3kID2c-126" connectable="0" vertex="1">
          <mxGeometry x="-1" relative="1" as="geometry">
            <mxPoint x="-150" y="60" as="offset" />
          </mxGeometry>
        </mxCell>
        <mxCell id="JY-SjFJ4gWz8gs3kID2c-128" value="" style="endArrow=block;endFill=1;html=1;edgeStyle=orthogonalEdgeStyle;align=left;verticalAlign=top;rounded=0;exitX=0.25;exitY=1;exitDx=0;exitDy=0;entryX=1;entryY=0.5;entryDx=0;entryDy=0;" parent="1" source="JY-SjFJ4gWz8gs3kID2c-124" target="JY-SjFJ4gWz8gs3kID2c-115" edge="1">
          <mxGeometry x="-1" relative="1" as="geometry">
            <mxPoint x="2240" y="2040" as="sourcePoint" />
            <mxPoint x="2400" y="2040" as="targetPoint" />
          </mxGeometry>
        </mxCell>
        <mxCell id="JY-SjFJ4gWz8gs3kID2c-129" value="1" style="edgeLabel;resizable=0;html=1;align=left;verticalAlign=bottom;" parent="JY-SjFJ4gWz8gs3kID2c-128" connectable="0" vertex="1">
          <mxGeometry x="-1" relative="1" as="geometry">
            <mxPoint x="-115" y="380" as="offset" />
          </mxGeometry>
        </mxCell>
        <mxCell id="JY-SjFJ4gWz8gs3kID2c-132" value="n" style="endArrow=open;html=1;endSize=12;startArrow=diamondThin;startSize=14;startFill=1;edgeStyle=orthogonalEdgeStyle;align=left;verticalAlign=bottom;rounded=0;entryX=1;entryY=0.5;entryDx=0;entryDy=0;" parent="1" source="JY-SjFJ4gWz8gs3kID2c-117" target="JY-SjFJ4gWz8gs3kID2c-124" edge="1">
          <mxGeometry x="0.9095" y="-10" relative="1" as="geometry">
            <mxPoint x="2410" y="1470" as="sourcePoint" />
            <mxPoint x="2570" y="1470" as="targetPoint" />
            <Array as="points">
              <mxPoint x="2430" y="1478" />
              <mxPoint x="2430" y="1810" />
            </Array>
            <mxPoint as="offset" />
          </mxGeometry>
        </mxCell>
        <mxCell id="JY-SjFJ4gWz8gs3kID2c-133" value="cursors" style="edgeLabel;html=1;align=center;verticalAlign=middle;resizable=0;points=[];" parent="JY-SjFJ4gWz8gs3kID2c-132" vertex="1" connectable="0">
          <mxGeometry x="0.7506" y="-3" relative="1" as="geometry">
            <mxPoint x="-27" y="25" as="offset" />
          </mxGeometry>
        </mxCell>
        <mxCell id="O2gDyJJrCr2cwPpWaObL-1" value="WIDGET" style="shape=umlFrame;whiteSpace=wrap;html=1;pointerEvents=0;fillColor=#60a917;strokeColor=#2D7600;fontColor=#ffffff;" parent="1" vertex="1">
          <mxGeometry x="-1520" y="-960" width="1680" height="2079" as="geometry" />
        </mxCell>
        <mxCell id="O2gDyJJrCr2cwPpWaObL-2" value="RENDEING" style="shape=umlFrame;whiteSpace=wrap;html=1;pointerEvents=0;fillColor=#6a00ff;strokeColor=#3700CC;fontColor=#ffffff;" parent="1" vertex="1">
          <mxGeometry x="-1320" y="1140" width="1650" height="1120" as="geometry" />
        </mxCell>
        <mxCell id="O2gDyJJrCr2cwPpWaObL-3" value="FrameBuffer" style="swimlane;fontStyle=1;align=center;verticalAlign=top;childLayout=stackLayout;horizontal=1;startSize=26;horizontalStack=0;resizeParent=1;resizeParentMax=0;resizeLast=0;collapsible=1;marginBottom=0;whiteSpace=wrap;html=1;" parent="1" vertex="1">
          <mxGeometry x="-920" y="1960" width="320" height="220" as="geometry" />
        </mxCell>
        <mxCell id="O2gDyJJrCr2cwPpWaObL-4" value="- id : GLuint" style="text;strokeColor=none;fillColor=none;align=left;verticalAlign=top;spacingLeft=4;spacingRight=4;overflow=hidden;rotatable=0;points=[[0,0.5],[1,0.5]];portConstraint=eastwest;whiteSpace=wrap;html=1;" parent="O2gDyJJrCr2cwPpWaObL-3" vertex="1">
          <mxGeometry y="26" width="320" height="26" as="geometry" />
        </mxCell>
        <mxCell id="O2gDyJJrCr2cwPpWaObL-5" value="" style="line;strokeWidth=1;fillColor=none;align=left;verticalAlign=middle;spacingTop=-1;spacingLeft=3;spacingRight=3;rotatable=0;labelPosition=right;points=[];portConstraint=eastwest;strokeColor=inherit;" parent="O2gDyJJrCr2cwPpWaObL-3" vertex="1">
          <mxGeometry y="52" width="320" height="8" as="geometry" />
        </mxCell>
        <mxCell id="O2gDyJJrCr2cwPpWaObL-6" value="+ Framebuffer()&lt;br&gt;&lt;br&gt;+ bind()&lt;br&gt;+ unbind()&lt;br&gt;&lt;br&gt;+ is_complete() : bool&lt;br&gt;&lt;br&gt;+ attach_texture(texture : Texture)&lt;br&gt;+ attach_render_buffer(renderBuffer : RenderBuffer)" style="text;strokeColor=none;fillColor=none;align=left;verticalAlign=top;spacingLeft=4;spacingRight=4;overflow=hidden;rotatable=0;points=[[0,0.5],[1,0.5]];portConstraint=eastwest;whiteSpace=wrap;html=1;" parent="O2gDyJJrCr2cwPpWaObL-3" vertex="1">
          <mxGeometry y="60" width="320" height="160" as="geometry" />
        </mxCell>
        <mxCell id="O2gDyJJrCr2cwPpWaObL-7" value="RenderBuffer" style="swimlane;fontStyle=1;align=center;verticalAlign=top;childLayout=stackLayout;horizontal=1;startSize=26;horizontalStack=0;resizeParent=1;resizeParentMax=0;resizeLast=0;collapsible=1;marginBottom=0;whiteSpace=wrap;html=1;" parent="1" vertex="1">
          <mxGeometry x="-440" y="1960" width="160" height="200" as="geometry" />
        </mxCell>
        <mxCell id="O2gDyJJrCr2cwPpWaObL-8" value="- id : GLuint" style="text;strokeColor=none;fillColor=none;align=left;verticalAlign=top;spacingLeft=4;spacingRight=4;overflow=hidden;rotatable=0;points=[[0,0.5],[1,0.5]];portConstraint=eastwest;whiteSpace=wrap;html=1;" parent="O2gDyJJrCr2cwPpWaObL-7" vertex="1">
          <mxGeometry y="26" width="160" height="26" as="geometry" />
        </mxCell>
        <mxCell id="O2gDyJJrCr2cwPpWaObL-9" value="" style="line;strokeWidth=1;fillColor=none;align=left;verticalAlign=middle;spacingTop=-1;spacingLeft=3;spacingRight=3;rotatable=0;labelPosition=right;points=[];portConstraint=eastwest;strokeColor=inherit;" parent="O2gDyJJrCr2cwPpWaObL-7" vertex="1">
          <mxGeometry y="52" width="160" height="8" as="geometry" />
        </mxCell>
        <mxCell id="O2gDyJJrCr2cwPpWaObL-10" value="+ RenderBuffer()&lt;br&gt;&lt;br&gt;+ bind()&lt;br&gt;+ unbind()&lt;br&gt;&lt;br&gt;+ create_depth_stencil()&lt;br&gt;&lt;br&gt;+ get_id() : GLuint" style="text;strokeColor=none;fillColor=none;align=left;verticalAlign=top;spacingLeft=4;spacingRight=4;overflow=hidden;rotatable=0;points=[[0,0.5],[1,0.5]];portConstraint=eastwest;whiteSpace=wrap;html=1;" parent="O2gDyJJrCr2cwPpWaObL-7" vertex="1">
          <mxGeometry y="60" width="160" height="140" as="geometry" />
        </mxCell>
        <mxCell id="O2gDyJJrCr2cwPpWaObL-11" value="" style="endArrow=open;endSize=12;dashed=1;html=1;rounded=0;" parent="1" source="O2gDyJJrCr2cwPpWaObL-6" target="O2gDyJJrCr2cwPpWaObL-10" edge="1">
          <mxGeometry x="0.2761" y="83" width="160" relative="1" as="geometry">
            <mxPoint x="-540" y="2050" as="sourcePoint" />
            <mxPoint x="-380" y="2050" as="targetPoint" />
            <mxPoint as="offset" />
          </mxGeometry>
        </mxCell>
        <mxCell id="O2gDyJJrCr2cwPpWaObL-14" value="&amp;lt;&amp;lt;&amp;lt;enumeration&amp;gt;&amp;gt;&amp;gt;&lt;br&gt;RenderingOption" style="swimlane;fontStyle=0;childLayout=stackLayout;horizontal=1;startSize=30;fillColor=none;horizontalStack=0;resizeParent=1;resizeParentMax=0;resizeLast=0;collapsible=1;marginBottom=0;whiteSpace=wrap;html=1;" parent="1" vertex="1">
          <mxGeometry x="-1200" y="1960" width="140" height="100" as="geometry" />
        </mxCell>
        <mxCell id="O2gDyJJrCr2cwPpWaObL-15" value="NORMAL&lt;br&gt;BLURRED" style="text;strokeColor=none;fillColor=none;align=left;verticalAlign=top;spacingLeft=4;spacingRight=4;overflow=hidden;rotatable=0;points=[[0,0.5],[1,0.5]];portConstraint=eastwest;whiteSpace=wrap;html=1;" parent="O2gDyJJrCr2cwPpWaObL-14" vertex="1">
          <mxGeometry y="30" width="140" height="70" as="geometry" />
        </mxCell>
        <mxCell id="O2gDyJJrCr2cwPpWaObL-20" value="&lt;p style=&quot;margin:0px;margin-top:6px;text-align:center;&quot;&gt;&lt;b&gt;map&lt;/b&gt;&lt;/p&gt;&lt;hr&gt;&lt;p style=&quot;margin:0px;margin-left:8px;&quot;&gt;&lt;br&gt;&lt;/p&gt;&lt;p style=&quot;margin:0px;margin-left:8px;&quot;&gt;&lt;br&gt;&lt;/p&gt;" style="align=left;overflow=fill;html=1;dropTarget=0;whiteSpace=wrap;" parent="1" vertex="1">
          <mxGeometry x="-1220" y="1485" width="180" height="60" as="geometry" />
        </mxCell>
        <mxCell id="O2gDyJJrCr2cwPpWaObL-21" value="" style="shape=component;jettyWidth=8;jettyHeight=4;" parent="O2gDyJJrCr2cwPpWaObL-20" vertex="1">
          <mxGeometry x="1" width="20" height="20" relative="1" as="geometry">
            <mxPoint x="-24" y="4" as="offset" />
          </mxGeometry>
        </mxCell>
        <mxCell id="O2gDyJJrCr2cwPpWaObL-22" value="" style="endArrow=block;endFill=1;html=1;edgeStyle=orthogonalEdgeStyle;align=left;verticalAlign=top;rounded=0;exitX=0.5;exitY=1;exitDx=0;exitDy=0;entryX=0.5;entryY=0;entryDx=0;entryDy=0;" parent="1" source="O2gDyJJrCr2cwPpWaObL-20" target="O2gDyJJrCr2cwPpWaObL-14" edge="1">
          <mxGeometry x="-1" relative="1" as="geometry">
            <mxPoint x="-980" y="1720" as="sourcePoint" />
            <mxPoint x="-820" y="1720" as="targetPoint" />
          </mxGeometry>
        </mxCell>
        <mxCell id="O2gDyJJrCr2cwPpWaObL-23" value="1" style="edgeLabel;resizable=0;html=1;align=left;verticalAlign=bottom;" parent="O2gDyJJrCr2cwPpWaObL-22" connectable="0" vertex="1">
          <mxGeometry x="-1" relative="1" as="geometry">
            <mxPoint x="10" y="405" as="offset" />
          </mxGeometry>
        </mxCell>
        <mxCell id="O2gDyJJrCr2cwPpWaObL-24" value="n" style="endArrow=open;html=1;endSize=12;startArrow=diamondThin;startSize=14;startFill=1;edgeStyle=orthogonalEdgeStyle;align=left;verticalAlign=bottom;rounded=0;exitX=0;exitY=0.5;exitDx=0;exitDy=0;" parent="1" source="O2gDyJJrCr2cwPpWaObL-48" target="O2gDyJJrCr2cwPpWaObL-20" edge="1">
          <mxGeometry x="0.9811" y="20" relative="1" as="geometry">
            <mxPoint x="-1130" y="1280" as="sourcePoint" />
            <mxPoint x="-820" y="1740" as="targetPoint" />
            <mxPoint as="offset" />
          </mxGeometry>
        </mxCell>
        <mxCell id="O2gDyJJrCr2cwPpWaObL-26" value="0..n" style="endArrow=open;html=1;endSize=12;startArrow=diamondThin;startSize=14;startFill=0;edgeStyle=orthogonalEdgeStyle;align=left;verticalAlign=bottom;rounded=0;" parent="1" source="O2gDyJJrCr2cwPpWaObL-20" target="O2gDyJJrCr2cwPpWaObL-56" edge="1">
          <mxGeometry x="0.8939" y="-10" relative="1" as="geometry">
            <mxPoint x="-1350" y="1370" as="sourcePoint" />
            <mxPoint x="-820" y="1620" as="targetPoint" />
            <Array as="points">
              <mxPoint x="-1280" y="1515" />
            </Array>
            <mxPoint as="offset" />
          </mxGeometry>
        </mxCell>
        <mxCell id="O2gDyJJrCr2cwPpWaObL-31" value="BufferManager" style="swimlane;fontStyle=1;align=center;verticalAlign=top;childLayout=stackLayout;horizontal=1;startSize=26;horizontalStack=0;resizeParent=1;resizeParentMax=0;resizeLast=0;collapsible=1;marginBottom=0;whiteSpace=wrap;html=1;" parent="1" vertex="1">
          <mxGeometry x="-600" y="1520" width="320" height="146" as="geometry" />
        </mxCell>
        <mxCell id="O2gDyJJrCr2cwPpWaObL-32" value="" style="line;strokeWidth=1;fillColor=none;align=left;verticalAlign=middle;spacingTop=-1;spacingLeft=3;spacingRight=3;rotatable=0;labelPosition=right;points=[];portConstraint=eastwest;strokeColor=inherit;" parent="O2gDyJJrCr2cwPpWaObL-31" vertex="1">
          <mxGeometry y="26" width="320" height="24" as="geometry" />
        </mxCell>
        <mxCell id="O2gDyJJrCr2cwPpWaObL-33" value="&lt;p style=&quot;margin: 0px 0px 0px 4px;&quot;&gt;- BufferManager()&lt;/p&gt;&lt;p style=&quot;margin: 0px 0px 0px 4px;&quot;&gt;&lt;span style=&quot;background-color: initial;&quot;&gt;&lt;br&gt;&lt;/span&gt;&lt;/p&gt;&lt;p style=&quot;margin: 0px 0px 0px 4px;&quot;&gt;&lt;span style=&quot;background-color: initial;&quot;&gt;+ create(bufferName : string) : FrameBuffer&lt;/span&gt;&lt;/p&gt;&lt;p style=&quot;margin: 0px 0px 0px 4px;&quot;&gt;+ get(bufferName : string) : Framebuffer&lt;/p&gt;&lt;p style=&quot;margin: 0px 0px 0px 4px;&quot;&gt;+ delete(buffername : string[0..n])&lt;/p&gt;&lt;p style=&quot;margin: 0px 0px 0px 4px;&quot;&gt;&lt;br&gt;&lt;/p&gt;" style="text;strokeColor=none;fillColor=none;align=left;verticalAlign=top;spacingLeft=4;spacingRight=4;overflow=hidden;rotatable=0;points=[[0,0.5],[1,0.5]];portConstraint=eastwest;whiteSpace=wrap;html=1;" parent="O2gDyJJrCr2cwPpWaObL-31" vertex="1">
          <mxGeometry y="50" width="320" height="96" as="geometry" />
        </mxCell>
        <mxCell id="O2gDyJJrCr2cwPpWaObL-38" value="&lt;p style=&quot;margin:0px;margin-top:6px;text-align:center;&quot;&gt;&lt;b&gt;map&lt;/b&gt;&lt;/p&gt;&lt;hr&gt;&lt;p style=&quot;margin:0px;margin-left:8px;&quot;&gt;+ string&lt;/p&gt;&lt;p style=&quot;margin:0px;margin-left:8px;&quot;&gt;&lt;br&gt;&lt;/p&gt;" style="align=left;overflow=fill;html=1;dropTarget=0;whiteSpace=wrap;" parent="1" vertex="1">
          <mxGeometry x="-980" y="1720" width="180" height="60" as="geometry" />
        </mxCell>
        <mxCell id="O2gDyJJrCr2cwPpWaObL-39" value="" style="shape=component;jettyWidth=8;jettyHeight=4;" parent="O2gDyJJrCr2cwPpWaObL-38" vertex="1">
          <mxGeometry x="1" width="20" height="20" relative="1" as="geometry">
            <mxPoint x="-24" y="4" as="offset" />
          </mxGeometry>
        </mxCell>
        <mxCell id="O2gDyJJrCr2cwPpWaObL-40" value="" style="endArrow=block;endFill=1;html=1;edgeStyle=orthogonalEdgeStyle;align=left;verticalAlign=top;rounded=0;exitX=0.5;exitY=1;exitDx=0;exitDy=0;entryX=0.25;entryY=0;entryDx=0;entryDy=0;" parent="1" source="O2gDyJJrCr2cwPpWaObL-38" target="O2gDyJJrCr2cwPpWaObL-3" edge="1">
          <mxGeometry x="-1" relative="1" as="geometry">
            <mxPoint x="-790" y="1900" as="sourcePoint" />
            <mxPoint x="-630" y="1900" as="targetPoint" />
          </mxGeometry>
        </mxCell>
        <mxCell id="O2gDyJJrCr2cwPpWaObL-41" value="1" style="edgeLabel;resizable=0;html=1;align=left;verticalAlign=bottom;" parent="O2gDyJJrCr2cwPpWaObL-40" connectable="0" vertex="1">
          <mxGeometry x="-1" relative="1" as="geometry">
            <mxPoint x="30" y="170" as="offset" />
          </mxGeometry>
        </mxCell>
        <mxCell id="O2gDyJJrCr2cwPpWaObL-42" value="0..n" style="endArrow=open;html=1;endSize=12;startArrow=diamondThin;startSize=14;startFill=1;edgeStyle=orthogonalEdgeStyle;align=left;verticalAlign=bottom;rounded=0;exitX=0;exitY=0.25;exitDx=0;exitDy=0;entryX=0.5;entryY=0;entryDx=0;entryDy=0;" parent="1" source="O2gDyJJrCr2cwPpWaObL-31" target="O2gDyJJrCr2cwPpWaObL-38" edge="1">
          <mxGeometry x="0.9559" y="-30" relative="1" as="geometry">
            <mxPoint x="-590" y="1790" as="sourcePoint" />
            <mxPoint x="-430" y="1790" as="targetPoint" />
            <mxPoint as="offset" />
          </mxGeometry>
        </mxCell>
        <mxCell id="O2gDyJJrCr2cwPpWaObL-43" value="buffers" style="text;html=1;align=center;verticalAlign=middle;resizable=0;points=[];autosize=1;strokeColor=none;fillColor=none;" parent="1" vertex="1">
          <mxGeometry x="-887" y="1680" width="60" height="30" as="geometry" />
        </mxCell>
        <mxCell id="O2gDyJJrCr2cwPpWaObL-44" value="RenderManager" style="swimlane;fontStyle=1;align=center;verticalAlign=top;childLayout=stackLayout;horizontal=1;startSize=26;horizontalStack=0;resizeParent=1;resizeParentMax=0;resizeLast=0;collapsible=1;marginBottom=0;whiteSpace=wrap;html=1;" parent="1" vertex="1">
          <mxGeometry x="-720" y="1200" width="160" height="120" as="geometry" />
        </mxCell>
        <mxCell id="O2gDyJJrCr2cwPpWaObL-45" value="&lt;br&gt;" style="text;strokeColor=none;fillColor=none;align=left;verticalAlign=top;spacingLeft=4;spacingRight=4;overflow=hidden;rotatable=0;points=[[0,0.5],[1,0.5]];portConstraint=eastwest;whiteSpace=wrap;html=1;" parent="O2gDyJJrCr2cwPpWaObL-44" vertex="1">
          <mxGeometry y="26" width="160" height="26" as="geometry" />
        </mxCell>
        <mxCell id="O2gDyJJrCr2cwPpWaObL-46" value="" style="line;strokeWidth=1;fillColor=none;align=left;verticalAlign=middle;spacingTop=-1;spacingLeft=3;spacingRight=3;rotatable=0;labelPosition=right;points=[];portConstraint=eastwest;strokeColor=inherit;" parent="O2gDyJJrCr2cwPpWaObL-44" vertex="1">
          <mxGeometry y="52" width="160" height="8" as="geometry" />
        </mxCell>
        <mxCell id="O2gDyJJrCr2cwPpWaObL-47" value="+ draw(tag : string[0..n])&lt;br&gt;&lt;br&gt;+ loop()" style="text;strokeColor=none;fillColor=none;align=left;verticalAlign=top;spacingLeft=4;spacingRight=4;overflow=hidden;rotatable=0;points=[[0,0.5],[1,0.5]];portConstraint=eastwest;whiteSpace=wrap;html=1;" parent="O2gDyJJrCr2cwPpWaObL-44" vertex="1">
          <mxGeometry y="60" width="160" height="60" as="geometry" />
        </mxCell>
        <mxCell id="O2gDyJJrCr2cwPpWaObL-48" value="&lt;p style=&quot;margin:0px;margin-top:6px;text-align:center;&quot;&gt;&lt;b&gt;map&lt;/b&gt;&lt;/p&gt;&lt;hr&gt;&lt;p style=&quot;margin:0px;margin-left:8px;&quot;&gt;&lt;span style=&quot;background-color: initial;&quot;&gt;+ str&lt;/span&gt;&lt;br&gt;&lt;/p&gt;" style="align=left;overflow=fill;html=1;dropTarget=0;whiteSpace=wrap;" parent="1" vertex="1">
          <mxGeometry x="-1080" y="1275" width="180" height="60" as="geometry" />
        </mxCell>
        <mxCell id="O2gDyJJrCr2cwPpWaObL-49" value="" style="shape=component;jettyWidth=8;jettyHeight=4;" parent="O2gDyJJrCr2cwPpWaObL-48" vertex="1">
          <mxGeometry x="1" width="20" height="20" relative="1" as="geometry">
            <mxPoint x="-24" y="4" as="offset" />
          </mxGeometry>
        </mxCell>
        <mxCell id="O2gDyJJrCr2cwPpWaObL-50" value="0..n" style="endArrow=open;html=1;endSize=12;startArrow=diamondThin;startSize=14;startFill=1;edgeStyle=orthogonalEdgeStyle;align=left;verticalAlign=bottom;rounded=0;exitX=0;exitY=0.5;exitDx=0;exitDy=0;" parent="1" source="O2gDyJJrCr2cwPpWaObL-45" target="O2gDyJJrCr2cwPpWaObL-48" edge="1">
          <mxGeometry x="0.9811" y="20" relative="1" as="geometry">
            <mxPoint x="-990" y="1070" as="sourcePoint" />
            <mxPoint x="-680" y="1530" as="targetPoint" />
            <mxPoint as="offset" />
          </mxGeometry>
        </mxCell>
        <mxCell id="O2gDyJJrCr2cwPpWaObL-51" value="widgets" style="text;html=1;align=center;verticalAlign=middle;resizable=0;points=[];autosize=1;strokeColor=none;fillColor=none;" parent="1" vertex="1">
          <mxGeometry x="-1050" y="1240" width="60" height="30" as="geometry" />
        </mxCell>
        <mxCell id="O2gDyJJrCr2cwPpWaObL-53" value="&lt;i&gt;Widget&lt;/i&gt;" style="swimlane;fontStyle=1;align=center;verticalAlign=top;childLayout=stackLayout;horizontal=1;startSize=26;horizontalStack=0;resizeParent=1;resizeParentMax=0;resizeLast=0;collapsible=1;marginBottom=0;whiteSpace=wrap;html=1;" parent="1" vertex="1">
          <mxGeometry x="-770" y="120" width="250" height="220" as="geometry" />
        </mxCell>
        <mxCell id="O2gDyJJrCr2cwPpWaObL-54" value="# position : glm::vec2&lt;br&gt;# size : glm::vec2&lt;br&gt;# color : glm::vec3" style="text;strokeColor=none;fillColor=none;align=left;verticalAlign=top;spacingLeft=4;spacingRight=4;overflow=hidden;rotatable=0;points=[[0,0.5],[1,0.5]];portConstraint=eastwest;whiteSpace=wrap;html=1;" parent="O2gDyJJrCr2cwPpWaObL-53" vertex="1">
          <mxGeometry y="26" width="250" height="54" as="geometry" />
        </mxCell>
        <mxCell id="O2gDyJJrCr2cwPpWaObL-55" value="" style="line;strokeWidth=1;fillColor=none;align=left;verticalAlign=middle;spacingTop=-1;spacingLeft=3;spacingRight=3;rotatable=0;labelPosition=right;points=[];portConstraint=eastwest;strokeColor=inherit;" parent="O2gDyJJrCr2cwPpWaObL-53" vertex="1">
          <mxGeometry y="80" width="250" height="8" as="geometry" />
        </mxCell>
        <mxCell id="O2gDyJJrCr2cwPpWaObL-56" value="+ Widget()&lt;br&gt;&lt;br&gt;+ &lt;i&gt;draw()&lt;br&gt;&lt;br&gt;+ get_position() : glm::vec2&lt;br&gt;+ set_positionn(newPosition : glm::vec2)&lt;br&gt;&lt;br&gt;+ get_size() : glm::vec2&lt;br&gt;&lt;/i&gt;" style="text;strokeColor=none;fillColor=none;align=left;verticalAlign=top;spacingLeft=4;spacingRight=4;overflow=hidden;rotatable=0;points=[[0,0.5],[1,0.5]];portConstraint=eastwest;whiteSpace=wrap;html=1;" parent="O2gDyJJrCr2cwPpWaObL-53" vertex="1">
          <mxGeometry y="88" width="250" height="132" as="geometry" />
        </mxCell>
        <mxCell id="O2gDyJJrCr2cwPpWaObL-57" value="VertexArrayObject" style="swimlane;fontStyle=1;align=center;verticalAlign=top;childLayout=stackLayout;horizontal=1;startSize=26;horizontalStack=0;resizeParent=1;resizeParentMax=0;resizeLast=0;collapsible=1;marginBottom=0;whiteSpace=wrap;html=1;" parent="1" vertex="1">
          <mxGeometry x="-1400" y="-30" width="160" height="140" as="geometry" />
        </mxCell>
        <mxCell id="O2gDyJJrCr2cwPpWaObL-58" value="- id : GLuint" style="text;strokeColor=none;fillColor=none;align=left;verticalAlign=top;spacingLeft=4;spacingRight=4;overflow=hidden;rotatable=0;points=[[0,0.5],[1,0.5]];portConstraint=eastwest;whiteSpace=wrap;html=1;" parent="O2gDyJJrCr2cwPpWaObL-57" vertex="1">
          <mxGeometry y="26" width="160" height="26" as="geometry" />
        </mxCell>
        <mxCell id="O2gDyJJrCr2cwPpWaObL-59" value="" style="line;strokeWidth=1;fillColor=none;align=left;verticalAlign=middle;spacingTop=-1;spacingLeft=3;spacingRight=3;rotatable=0;labelPosition=right;points=[];portConstraint=eastwest;strokeColor=inherit;" parent="O2gDyJJrCr2cwPpWaObL-57" vertex="1">
          <mxGeometry y="52" width="160" height="8" as="geometry" />
        </mxCell>
        <mxCell id="O2gDyJJrCr2cwPpWaObL-60" value="+ VertexArrayObject()&lt;br&gt;&lt;br&gt;+ bind()&lt;br&gt;+ unbind()" style="text;strokeColor=none;fillColor=none;align=left;verticalAlign=top;spacingLeft=4;spacingRight=4;overflow=hidden;rotatable=0;points=[[0,0.5],[1,0.5]];portConstraint=eastwest;whiteSpace=wrap;html=1;" parent="O2gDyJJrCr2cwPpWaObL-57" vertex="1">
          <mxGeometry y="60" width="160" height="80" as="geometry" />
        </mxCell>
        <mxCell id="O2gDyJJrCr2cwPpWaObL-61" value="VertexBufferObject" style="swimlane;fontStyle=1;align=center;verticalAlign=top;childLayout=stackLayout;horizontal=1;startSize=26;horizontalStack=0;resizeParent=1;resizeParentMax=0;resizeLast=0;collapsible=1;marginBottom=0;whiteSpace=wrap;html=1;" parent="1" vertex="1">
          <mxGeometry x="-1200" y="-30" width="280" height="180" as="geometry" />
        </mxCell>
        <mxCell id="O2gDyJJrCr2cwPpWaObL-62" value="- id : GLuint" style="text;strokeColor=none;fillColor=none;align=left;verticalAlign=top;spacingLeft=4;spacingRight=4;overflow=hidden;rotatable=0;points=[[0,0.5],[1,0.5]];portConstraint=eastwest;whiteSpace=wrap;html=1;" parent="O2gDyJJrCr2cwPpWaObL-61" vertex="1">
          <mxGeometry y="26" width="280" height="26" as="geometry" />
        </mxCell>
        <mxCell id="O2gDyJJrCr2cwPpWaObL-63" value="" style="line;strokeWidth=1;fillColor=none;align=left;verticalAlign=middle;spacingTop=-1;spacingLeft=3;spacingRight=3;rotatable=0;labelPosition=right;points=[];portConstraint=eastwest;strokeColor=inherit;" parent="O2gDyJJrCr2cwPpWaObL-61" vertex="1">
          <mxGeometry y="52" width="280" height="8" as="geometry" />
        </mxCell>
        <mxCell id="O2gDyJJrCr2cwPpWaObL-64" value="+ VertexBufferObject()&lt;br&gt;&lt;br&gt;+ bind()&lt;br&gt;+ unbind()&lt;br&gt;&lt;br&gt;+ set_data(data : void*, size : int, dynamic : bool)&lt;br&gt;+ set_sub_data(data : void*, size : int, offset : int)" style="text;strokeColor=none;fillColor=none;align=left;verticalAlign=top;spacingLeft=4;spacingRight=4;overflow=hidden;rotatable=0;points=[[0,0.5],[1,0.5]];portConstraint=eastwest;whiteSpace=wrap;html=1;" parent="O2gDyJJrCr2cwPpWaObL-61" vertex="1">
          <mxGeometry y="60" width="280" height="120" as="geometry" />
        </mxCell>
        <mxCell id="O2gDyJJrCr2cwPpWaObL-65" value="Button" style="swimlane;fontStyle=1;align=center;verticalAlign=top;childLayout=stackLayout;horizontal=1;startSize=26;horizontalStack=0;resizeParent=1;resizeParentMax=0;resizeLast=0;collapsible=1;marginBottom=0;whiteSpace=wrap;html=1;" parent="1" vertex="1">
          <mxGeometry x="-1150" y="400" width="400" height="310" as="geometry" />
        </mxCell>
        <mxCell id="O2gDyJJrCr2cwPpWaObL-66" value="- function : Function&lt;br&gt;- texture : Texture[3]&lt;br&gt;- angularRadius : float&lt;br&gt;- modelMatrix : glm::mat4" style="text;strokeColor=none;fillColor=none;align=left;verticalAlign=top;spacingLeft=4;spacingRight=4;overflow=hidden;rotatable=0;points=[[0,0.5],[1,0.5]];portConstraint=eastwest;whiteSpace=wrap;html=1;" parent="O2gDyJJrCr2cwPpWaObL-65" vertex="1">
          <mxGeometry y="26" width="400" height="84" as="geometry" />
        </mxCell>
        <mxCell id="O2gDyJJrCr2cwPpWaObL-67" value="" style="line;strokeWidth=1;fillColor=none;align=left;verticalAlign=middle;spacingTop=-1;spacingLeft=3;spacingRight=3;rotatable=0;labelPosition=right;points=[];portConstraint=eastwest;strokeColor=inherit;" parent="O2gDyJJrCr2cwPpWaObL-65" vertex="1">
          <mxGeometry y="110" width="400" height="8" as="geometry" />
        </mxCell>
        <mxCell id="O2gDyJJrCr2cwPpWaObL-68" value="+ Button(function : Function, shader : Shader, position : glm::vec2, size :&amp;nbsp; &amp;nbsp; &amp;nbsp;glm::vec2, color : glm::vec3, rotationAngle : float, angularRadius : float)&lt;br&gt;&lt;br&gt;+ press()&lt;br&gt;+ draw()&lt;br&gt;+ set_state(newState : ButtonState)&amp;nbsp;&lt;br&gt;&lt;br&gt;+ set_textures(textureNormal : Texture, textureFocused : Texture,&amp;nbsp; texturePress : Texture)&lt;br&gt;&lt;br&gt;&lt;br&gt;- init_data()" style="text;strokeColor=none;fillColor=none;align=left;verticalAlign=top;spacingLeft=4;spacingRight=4;overflow=hidden;rotatable=0;points=[[0,0.5],[1,0.5]];portConstraint=eastwest;whiteSpace=wrap;html=1;" parent="O2gDyJJrCr2cwPpWaObL-65" vertex="1">
          <mxGeometry y="118" width="400" height="192" as="geometry" />
        </mxCell>
        <mxCell id="O2gDyJJrCr2cwPpWaObL-69" value="shader" style="endArrow=block;endFill=1;html=1;edgeStyle=orthogonalEdgeStyle;align=left;verticalAlign=top;rounded=0;exitX=1;exitY=0.5;exitDx=0;exitDy=0;" parent="1" source="O2gDyJJrCr2cwPpWaObL-54" target="JY-SjFJ4gWz8gs3kID2c-17" edge="1">
          <mxGeometry x="0.9529" y="-10" relative="1" as="geometry">
            <mxPoint x="-420" y="320" as="sourcePoint" />
            <mxPoint x="-260" y="320" as="targetPoint" />
            <mxPoint as="offset" />
          </mxGeometry>
        </mxCell>
        <mxCell id="O2gDyJJrCr2cwPpWaObL-70" value="1" style="edgeLabel;resizable=0;html=1;align=left;verticalAlign=bottom;" parent="O2gDyJJrCr2cwPpWaObL-69" connectable="0" vertex="1">
          <mxGeometry x="-1" relative="1" as="geometry">
            <mxPoint x="1680" y="401" as="offset" />
          </mxGeometry>
        </mxCell>
        <mxCell id="O2gDyJJrCr2cwPpWaObL-71" value="VBO" style="endArrow=block;endFill=1;html=1;edgeStyle=orthogonalEdgeStyle;align=left;verticalAlign=top;rounded=0;exitX=0;exitY=0.5;exitDx=0;exitDy=0;" parent="1" source="O2gDyJJrCr2cwPpWaObL-54" target="O2gDyJJrCr2cwPpWaObL-64" edge="1">
          <mxGeometry x="1" relative="1" as="geometry">
            <mxPoint x="-900" y="130" as="sourcePoint" />
            <mxPoint x="-740" y="130" as="targetPoint" />
            <mxPoint as="offset" />
          </mxGeometry>
        </mxCell>
        <mxCell id="O2gDyJJrCr2cwPpWaObL-72" value="1" style="edgeLabel;resizable=0;html=1;align=left;verticalAlign=bottom;" parent="O2gDyJJrCr2cwPpWaObL-71" connectable="0" vertex="1">
          <mxGeometry x="-1" relative="1" as="geometry">
            <mxPoint x="-140" y="-83" as="offset" />
          </mxGeometry>
        </mxCell>
        <mxCell id="O2gDyJJrCr2cwPpWaObL-73" value="VAO" style="endArrow=block;endFill=1;html=1;edgeStyle=orthogonalEdgeStyle;align=left;verticalAlign=top;rounded=0;entryX=0;entryY=0.5;entryDx=0;entryDy=0;exitX=0;exitY=1;exitDx=0;exitDy=0;exitPerimeter=0;" parent="1" source="O2gDyJJrCr2cwPpWaObL-55" target="O2gDyJJrCr2cwPpWaObL-60" edge="1">
          <mxGeometry x="0.9275" y="30" relative="1" as="geometry">
            <mxPoint x="-1070" y="130" as="sourcePoint" />
            <mxPoint x="-910" y="130" as="targetPoint" />
            <Array as="points">
              <mxPoint x="-1430" y="180" />
              <mxPoint x="-1430" y="70" />
            </Array>
            <mxPoint as="offset" />
          </mxGeometry>
        </mxCell>
        <mxCell id="O2gDyJJrCr2cwPpWaObL-74" value="1" style="edgeLabel;resizable=0;html=1;align=left;verticalAlign=bottom;" parent="O2gDyJJrCr2cwPpWaObL-73" connectable="0" vertex="1">
          <mxGeometry x="-1" relative="1" as="geometry">
            <mxPoint x="-650" y="-90" as="offset" />
          </mxGeometry>
        </mxCell>
        <mxCell id="O2gDyJJrCr2cwPpWaObL-75" value="" style="endArrow=block;endSize=16;endFill=0;html=1;rounded=0;exitX=0.5;exitY=0;exitDx=0;exitDy=0;" parent="1" source="O2gDyJJrCr2cwPpWaObL-65" target="O2gDyJJrCr2cwPpWaObL-56" edge="1">
          <mxGeometry x="-0.375" y="-80" width="160" relative="1" as="geometry">
            <mxPoint x="-740" y="660" as="sourcePoint" />
            <mxPoint x="-580" y="660" as="targetPoint" />
            <mxPoint x="-1" as="offset" />
          </mxGeometry>
        </mxCell>
        <mxCell id="O2gDyJJrCr2cwPpWaObL-76" value="&amp;lt;&amp;lt;&amp;lt;enumeration&amp;gt;&amp;gt;&amp;gt;&lt;br&gt;ButtonState" style="swimlane;fontStyle=0;childLayout=stackLayout;horizontal=1;startSize=30;fillColor=none;horizontalStack=0;resizeParent=1;resizeParentMax=0;resizeLast=0;collapsible=1;marginBottom=0;whiteSpace=wrap;html=1;" parent="1" vertex="1">
          <mxGeometry x="-1240" y="280" width="140" height="90" as="geometry" />
        </mxCell>
        <mxCell id="O2gDyJJrCr2cwPpWaObL-77" value="NORMAL&lt;br&gt;FOCUSED&lt;br&gt;PRESS" style="text;strokeColor=none;fillColor=none;align=left;verticalAlign=top;spacingLeft=4;spacingRight=4;overflow=hidden;rotatable=0;points=[[0,0.5],[1,0.5]];portConstraint=eastwest;whiteSpace=wrap;html=1;" parent="O2gDyJJrCr2cwPpWaObL-76" vertex="1">
          <mxGeometry y="30" width="140" height="60" as="geometry" />
        </mxCell>
        <mxCell id="O2gDyJJrCr2cwPpWaObL-78" value="state" style="endArrow=block;endFill=1;html=1;edgeStyle=orthogonalEdgeStyle;align=left;verticalAlign=top;rounded=0;exitX=0;exitY=0.5;exitDx=0;exitDy=0;entryX=0;entryY=0.5;entryDx=0;entryDy=0;" parent="1" source="O2gDyJJrCr2cwPpWaObL-66" target="O2gDyJJrCr2cwPpWaObL-77" edge="1">
          <mxGeometry x="0.749" y="30" relative="1" as="geometry">
            <mxPoint x="-900" y="310" as="sourcePoint" />
            <mxPoint x="-740" y="310" as="targetPoint" />
            <Array as="points">
              <mxPoint x="-1270" y="439" />
              <mxPoint x="-1270" y="340" />
            </Array>
            <mxPoint as="offset" />
          </mxGeometry>
        </mxCell>
        <mxCell id="O2gDyJJrCr2cwPpWaObL-79" value="1" style="edgeLabel;resizable=0;html=1;align=left;verticalAlign=bottom;" parent="O2gDyJJrCr2cwPpWaObL-78" connectable="0" vertex="1">
          <mxGeometry x="-1" relative="1" as="geometry">
            <mxPoint x="-100" y="-69" as="offset" />
          </mxGeometry>
        </mxCell>
        <mxCell id="O2gDyJJrCr2cwPpWaObL-80" value="" style="endArrow=open;endSize=12;dashed=1;html=1;rounded=0;entryX=0.5;entryY=0;entryDx=0;entryDy=0;" parent="1" source="O2gDyJJrCr2cwPpWaObL-47" target="O2gDyJJrCr2cwPpWaObL-31" edge="1">
          <mxGeometry x="0.5" y="120" width="160" relative="1" as="geometry">
            <mxPoint x="-880" y="1590" as="sourcePoint" />
            <mxPoint x="-720" y="1590" as="targetPoint" />
            <mxPoint as="offset" />
          </mxGeometry>
        </mxCell>
        <mxCell id="O2gDyJJrCr2cwPpWaObL-86" value="TextArea" style="swimlane;fontStyle=1;align=center;verticalAlign=top;childLayout=stackLayout;horizontal=1;startSize=26;horizontalStack=0;resizeParent=1;resizeParentMax=0;resizeLast=0;collapsible=1;marginBottom=0;whiteSpace=wrap;html=1;" parent="1" vertex="1">
          <mxGeometry x="-720" y="400" width="360" height="180" as="geometry" />
        </mxCell>
        <mxCell id="O2gDyJJrCr2cwPpWaObL-87" value="&lt;br&gt;" style="text;strokeColor=none;fillColor=none;align=left;verticalAlign=top;spacingLeft=4;spacingRight=4;overflow=hidden;rotatable=0;points=[[0,0.5],[1,0.5]];portConstraint=eastwest;whiteSpace=wrap;html=1;" parent="O2gDyJJrCr2cwPpWaObL-86" vertex="1">
          <mxGeometry y="26" width="360" height="26" as="geometry" />
        </mxCell>
        <mxCell id="O2gDyJJrCr2cwPpWaObL-88" value="" style="line;strokeWidth=1;fillColor=none;align=left;verticalAlign=middle;spacingTop=-1;spacingLeft=3;spacingRight=3;rotatable=0;labelPosition=right;points=[];portConstraint=eastwest;strokeColor=inherit;" parent="O2gDyJJrCr2cwPpWaObL-86" vertex="1">
          <mxGeometry y="52" width="360" height="8" as="geometry" />
        </mxCell>
        <mxCell id="O2gDyJJrCr2cwPpWaObL-89" value="+ TextArea(text : string, font : Font, shader : Shader, position : &lt;span style=&quot;white-space: pre;&quot;&gt; &lt;/span&gt;glm::vec2, size : glm::vec2, color : glm::vec3)&lt;br&gt;&lt;br&gt;+ get_text() : string&lt;br&gt;+ set_text(newText : string)&lt;br&gt;&lt;br&gt;+ draw()" style="text;strokeColor=none;fillColor=none;align=left;verticalAlign=top;spacingLeft=4;spacingRight=4;overflow=hidden;rotatable=0;points=[[0,0.5],[1,0.5]];portConstraint=eastwest;whiteSpace=wrap;html=1;" parent="O2gDyJJrCr2cwPpWaObL-86" vertex="1">
          <mxGeometry y="60" width="360" height="120" as="geometry" />
        </mxCell>
        <mxCell id="O2gDyJJrCr2cwPpWaObL-90" value="" style="endArrow=block;endSize=16;endFill=0;html=1;rounded=0;exitX=0.5;exitY=0;exitDx=0;exitDy=0;" parent="1" source="O2gDyJJrCr2cwPpWaObL-86" target="O2gDyJJrCr2cwPpWaObL-56" edge="1">
          <mxGeometry x="-0.375" y="-80" width="160" relative="1" as="geometry">
            <mxPoint x="-940" y="410" as="sourcePoint" />
            <mxPoint x="-760" y="324" as="targetPoint" />
            <mxPoint x="-1" as="offset" />
          </mxGeometry>
        </mxCell>
        <mxCell id="O2gDyJJrCr2cwPpWaObL-92" value="&amp;lt;&amp;lt;&amp;lt;struct&amp;gt;&amp;gt;&amp;gt;&lt;br&gt;Character" style="swimlane;fontStyle=0;childLayout=stackLayout;horizontal=1;startSize=30;fillColor=none;horizontalStack=0;resizeParent=1;resizeParentMax=0;resizeLast=0;collapsible=1;marginBottom=0;whiteSpace=wrap;html=1;" parent="1" vertex="1">
          <mxGeometry x="-1240" y="956" width="160" height="100" as="geometry" />
        </mxCell>
        <mxCell id="O2gDyJJrCr2cwPpWaObL-93" value="+ textureID : GLuint&lt;br&gt;+ size : glm::ivec2&lt;br&gt;+&amp;nbsp; bearing : glm::ivec2&lt;br&gt;+ advance : unsigned int" style="text;strokeColor=none;fillColor=none;align=left;verticalAlign=top;spacingLeft=4;spacingRight=4;overflow=hidden;rotatable=0;points=[[0,0.5],[1,0.5]];portConstraint=eastwest;whiteSpace=wrap;html=1;" parent="O2gDyJJrCr2cwPpWaObL-92" vertex="1">
          <mxGeometry y="30" width="160" height="70" as="geometry" />
        </mxCell>
        <mxCell id="O2gDyJJrCr2cwPpWaObL-94" value="Font" style="swimlane;fontStyle=1;align=center;verticalAlign=top;childLayout=stackLayout;horizontal=1;startSize=26;horizontalStack=0;resizeParent=1;resizeParentMax=0;resizeLast=0;collapsible=1;marginBottom=0;whiteSpace=wrap;html=1;" parent="1" vertex="1">
          <mxGeometry x="-680" y="880" width="200" height="120" as="geometry" />
        </mxCell>
        <mxCell id="O2gDyJJrCr2cwPpWaObL-95" value="- fontPath : string" style="text;strokeColor=none;fillColor=none;align=left;verticalAlign=top;spacingLeft=4;spacingRight=4;overflow=hidden;rotatable=0;points=[[0,0.5],[1,0.5]];portConstraint=eastwest;whiteSpace=wrap;html=1;" parent="O2gDyJJrCr2cwPpWaObL-94" vertex="1">
          <mxGeometry y="26" width="200" height="26" as="geometry" />
        </mxCell>
        <mxCell id="O2gDyJJrCr2cwPpWaObL-96" value="" style="line;strokeWidth=1;fillColor=none;align=left;verticalAlign=middle;spacingTop=-1;spacingLeft=3;spacingRight=3;rotatable=0;labelPosition=right;points=[];portConstraint=eastwest;strokeColor=inherit;" parent="O2gDyJJrCr2cwPpWaObL-94" vertex="1">
          <mxGeometry y="52" width="200" height="8" as="geometry" />
        </mxCell>
        <mxCell id="O2gDyJJrCr2cwPpWaObL-97" value="+ Font(fontPath : string)&lt;br&gt;&lt;br&gt;+ get_character(character : char)" style="text;strokeColor=none;fillColor=none;align=left;verticalAlign=top;spacingLeft=4;spacingRight=4;overflow=hidden;rotatable=0;points=[[0,0.5],[1,0.5]];portConstraint=eastwest;whiteSpace=wrap;html=1;" parent="O2gDyJJrCr2cwPpWaObL-94" vertex="1">
          <mxGeometry y="60" width="200" height="60" as="geometry" />
        </mxCell>
        <mxCell id="O2gDyJJrCr2cwPpWaObL-98" value="&lt;p style=&quot;margin:0px;margin-top:6px;text-align:center;&quot;&gt;&lt;b&gt;map&lt;/b&gt;&lt;/p&gt;&lt;hr&gt;&lt;p style=&quot;margin:0px;margin-left:8px;&quot;&gt;+ char&lt;/p&gt;" style="align=left;overflow=fill;html=1;dropTarget=0;whiteSpace=wrap;" parent="1" vertex="1">
          <mxGeometry x="-987" y="991" width="180" height="60" as="geometry" />
        </mxCell>
        <mxCell id="O2gDyJJrCr2cwPpWaObL-99" value="" style="shape=component;jettyWidth=8;jettyHeight=4;" parent="O2gDyJJrCr2cwPpWaObL-98" vertex="1">
          <mxGeometry x="1" width="20" height="20" relative="1" as="geometry">
            <mxPoint x="-24" y="4" as="offset" />
          </mxGeometry>
        </mxCell>
        <mxCell id="O2gDyJJrCr2cwPpWaObL-100" value="" style="endArrow=block;endFill=1;html=1;edgeStyle=orthogonalEdgeStyle;align=left;verticalAlign=top;rounded=0;exitX=0;exitY=0.5;exitDx=0;exitDy=0;" parent="1" source="O2gDyJJrCr2cwPpWaObL-98" target="O2gDyJJrCr2cwPpWaObL-93" edge="1">
          <mxGeometry x="-0.2903" y="95" relative="1" as="geometry">
            <mxPoint x="-860" y="1046" as="sourcePoint" />
            <mxPoint x="-700" y="1046" as="targetPoint" />
            <mxPoint x="-1" as="offset" />
          </mxGeometry>
        </mxCell>
        <mxCell id="O2gDyJJrCr2cwPpWaObL-101" value="1" style="edgeLabel;resizable=0;html=1;align=left;verticalAlign=bottom;" parent="O2gDyJJrCr2cwPpWaObL-100" connectable="0" vertex="1">
          <mxGeometry x="-1" relative="1" as="geometry">
            <mxPoint x="-83" y="-5" as="offset" />
          </mxGeometry>
        </mxCell>
        <mxCell id="O2gDyJJrCr2cwPpWaObL-102" value="n" style="endArrow=open;html=1;endSize=12;startArrow=diamondThin;startSize=14;startFill=1;edgeStyle=orthogonalEdgeStyle;align=left;verticalAlign=bottom;rounded=0;entryX=1;entryY=0.5;entryDx=0;entryDy=0;" parent="1" source="O2gDyJJrCr2cwPpWaObL-95" target="O2gDyJJrCr2cwPpWaObL-98" edge="1">
          <mxGeometry x="0.8515" y="25" relative="1" as="geometry">
            <mxPoint x="-920" y="906" as="sourcePoint" />
            <mxPoint x="-760" y="906" as="targetPoint" />
            <Array as="points">
              <mxPoint x="-730" y="919" />
              <mxPoint x="-730" y="1021" />
            </Array>
            <mxPoint as="offset" />
          </mxGeometry>
        </mxCell>
        <mxCell id="O2gDyJJrCr2cwPpWaObL-103" value="characters" style="text;html=1;align=center;verticalAlign=middle;resizable=0;points=[];autosize=1;strokeColor=none;fillColor=none;" parent="1" vertex="1">
          <mxGeometry x="-807" y="991" width="80" height="30" as="geometry" />
        </mxCell>
        <mxCell id="O2gDyJJrCr2cwPpWaObL-104" value="FontManager" style="swimlane;fontStyle=1;align=center;verticalAlign=top;childLayout=stackLayout;horizontal=1;startSize=26;horizontalStack=0;resizeParent=1;resizeParentMax=0;resizeLast=0;collapsible=1;marginBottom=0;whiteSpace=wrap;html=1;" parent="1" vertex="1">
          <mxGeometry x="-680" y="721" width="240" height="130" as="geometry" />
        </mxCell>
        <mxCell id="O2gDyJJrCr2cwPpWaObL-105" value="&lt;br&gt;" style="text;strokeColor=none;fillColor=none;align=left;verticalAlign=top;spacingLeft=4;spacingRight=4;overflow=hidden;rotatable=0;points=[[0,0.5],[1,0.5]];portConstraint=eastwest;whiteSpace=wrap;html=1;" parent="O2gDyJJrCr2cwPpWaObL-104" vertex="1">
          <mxGeometry y="26" width="240" height="26" as="geometry" />
        </mxCell>
        <mxCell id="O2gDyJJrCr2cwPpWaObL-106" value="" style="line;strokeWidth=1;fillColor=none;align=left;verticalAlign=middle;spacingTop=-1;spacingLeft=3;spacingRight=3;rotatable=0;labelPosition=right;points=[];portConstraint=eastwest;strokeColor=inherit;" parent="O2gDyJJrCr2cwPpWaObL-104" vertex="1">
          <mxGeometry y="52" width="240" height="8" as="geometry" />
        </mxCell>
        <mxCell id="O2gDyJJrCr2cwPpWaObL-107" value="+ add(fontName : string, fontPath : string)&lt;br&gt;+ get(fontName : string) : Font&lt;br&gt;+ delete(fontsName : string[0..n])" style="text;strokeColor=none;fillColor=none;align=left;verticalAlign=top;spacingLeft=4;spacingRight=4;overflow=hidden;rotatable=0;points=[[0,0.5],[1,0.5]];portConstraint=eastwest;whiteSpace=wrap;html=1;" parent="O2gDyJJrCr2cwPpWaObL-104" vertex="1">
          <mxGeometry y="60" width="240" height="70" as="geometry" />
        </mxCell>
        <mxCell id="O2gDyJJrCr2cwPpWaObL-108" value="&lt;p style=&quot;margin:0px;margin-top:6px;text-align:center;&quot;&gt;&lt;b&gt;map&lt;/b&gt;&lt;/p&gt;&lt;hr&gt;&lt;p style=&quot;margin:0px;margin-left:8px;&quot;&gt;+ string&lt;/p&gt;" style="align=left;overflow=fill;html=1;dropTarget=0;whiteSpace=wrap;" parent="1" vertex="1">
          <mxGeometry x="1060" y="200" width="180" height="60" as="geometry" />
        </mxCell>
        <mxCell id="O2gDyJJrCr2cwPpWaObL-109" value="" style="shape=component;jettyWidth=8;jettyHeight=4;" parent="O2gDyJJrCr2cwPpWaObL-108" vertex="1">
          <mxGeometry x="1" width="20" height="20" relative="1" as="geometry">
            <mxPoint x="-24" y="4" as="offset" />
          </mxGeometry>
        </mxCell>
        <mxCell id="O2gDyJJrCr2cwPpWaObL-110" value="" style="endArrow=block;endFill=1;html=1;edgeStyle=orthogonalEdgeStyle;align=left;verticalAlign=top;rounded=0;exitX=0.5;exitY=1;exitDx=0;exitDy=0;entryX=0.25;entryY=0;entryDx=0;entryDy=0;" parent="1" source="O2gDyJJrCr2cwPpWaObL-108" target="JY-SjFJ4gWz8gs3kID2c-14" edge="1">
          <mxGeometry x="-1" relative="1" as="geometry">
            <mxPoint x="980" y="410" as="sourcePoint" />
            <mxPoint x="1140" y="410" as="targetPoint" />
          </mxGeometry>
        </mxCell>
        <mxCell id="O2gDyJJrCr2cwPpWaObL-111" value="1" style="edgeLabel;resizable=0;html=1;align=left;verticalAlign=bottom;" parent="O2gDyJJrCr2cwPpWaObL-110" connectable="0" vertex="1">
          <mxGeometry x="-1" relative="1" as="geometry">
            <mxPoint x="40" y="140" as="offset" />
          </mxGeometry>
        </mxCell>
        <mxCell id="O2gDyJJrCr2cwPpWaObL-112" value="&lt;p style=&quot;margin:0px;margin-top:6px;text-align:center;&quot;&gt;&lt;b&gt;map&lt;/b&gt;&lt;/p&gt;&lt;hr&gt;&lt;p style=&quot;margin:0px;margin-left:8px;&quot;&gt;+ string&lt;/p&gt;" style="align=left;overflow=fill;html=1;dropTarget=0;whiteSpace=wrap;" parent="1" vertex="1">
          <mxGeometry x="1654" y="190" width="186" height="60" as="geometry" />
        </mxCell>
        <mxCell id="O2gDyJJrCr2cwPpWaObL-113" value="" style="shape=component;jettyWidth=8;jettyHeight=4;" parent="O2gDyJJrCr2cwPpWaObL-112" vertex="1">
          <mxGeometry x="1" width="20" height="20" relative="1" as="geometry">
            <mxPoint x="-24" y="4" as="offset" />
          </mxGeometry>
        </mxCell>
        <mxCell id="O2gDyJJrCr2cwPpWaObL-114" value="" style="endArrow=block;endFill=1;html=1;edgeStyle=orthogonalEdgeStyle;align=left;verticalAlign=top;rounded=0;exitX=0.5;exitY=1;exitDx=0;exitDy=0;" parent="1" source="O2gDyJJrCr2cwPpWaObL-112" target="JY-SjFJ4gWz8gs3kID2c-21" edge="1">
          <mxGeometry x="-1" relative="1" as="geometry">
            <mxPoint x="1934" y="330" as="sourcePoint" />
            <mxPoint x="2129" y="330" as="targetPoint" />
          </mxGeometry>
        </mxCell>
        <mxCell id="O2gDyJJrCr2cwPpWaObL-115" value="1" style="edgeLabel;resizable=0;html=1;align=left;verticalAlign=bottom;" parent="O2gDyJJrCr2cwPpWaObL-114" connectable="0" vertex="1">
          <mxGeometry x="-1" relative="1" as="geometry">
            <mxPoint x="-97" y="150" as="offset" />
          </mxGeometry>
        </mxCell>
        <mxCell id="O2gDyJJrCr2cwPpWaObL-116" value="&lt;p style=&quot;margin:0px;margin-top:6px;text-align:center;&quot;&gt;&lt;b&gt;map&lt;/b&gt;&lt;/p&gt;&lt;hr&gt;&lt;p style=&quot;margin:0px;margin-left:8px;&quot;&gt;+ string&lt;/p&gt;" style="align=left;overflow=fill;html=1;dropTarget=0;whiteSpace=wrap;" parent="1" vertex="1">
          <mxGeometry x="-400" y="841" width="180" height="60" as="geometry" />
        </mxCell>
        <mxCell id="O2gDyJJrCr2cwPpWaObL-117" value="" style="shape=component;jettyWidth=8;jettyHeight=4;" parent="O2gDyJJrCr2cwPpWaObL-116" vertex="1">
          <mxGeometry x="1" width="20" height="20" relative="1" as="geometry">
            <mxPoint x="-24" y="4" as="offset" />
          </mxGeometry>
        </mxCell>
        <mxCell id="O2gDyJJrCr2cwPpWaObL-118" value="" style="endArrow=block;endFill=1;html=1;edgeStyle=orthogonalEdgeStyle;align=left;verticalAlign=top;rounded=0;exitX=0.5;exitY=1;exitDx=0;exitDy=0;" parent="1" source="O2gDyJJrCr2cwPpWaObL-116" target="O2gDyJJrCr2cwPpWaObL-97" edge="1">
          <mxGeometry x="-1" relative="1" as="geometry">
            <mxPoint x="-480" y="1051" as="sourcePoint" />
            <mxPoint x="-285" y="1051" as="targetPoint" />
          </mxGeometry>
        </mxCell>
        <mxCell id="O2gDyJJrCr2cwPpWaObL-119" value="1" style="edgeLabel;resizable=0;html=1;align=left;verticalAlign=bottom;" parent="O2gDyJJrCr2cwPpWaObL-118" connectable="0" vertex="1">
          <mxGeometry x="-1" relative="1" as="geometry">
            <mxPoint x="-160" y="99" as="offset" />
          </mxGeometry>
        </mxCell>
        <mxCell id="O2gDyJJrCr2cwPpWaObL-120" value="0..n" style="endArrow=open;html=1;endSize=12;startArrow=diamondThin;startSize=14;startFill=1;edgeStyle=orthogonalEdgeStyle;align=left;verticalAlign=bottom;rounded=0;entryX=0.5;entryY=0;entryDx=0;entryDy=0;" parent="1" source="O2gDyJJrCr2cwPpWaObL-105" target="O2gDyJJrCr2cwPpWaObL-116" edge="1">
          <mxGeometry x="0.9906" y="10" relative="1" as="geometry">
            <mxPoint x="-540" y="920" as="sourcePoint" />
            <mxPoint x="-380" y="920" as="targetPoint" />
            <mxPoint as="offset" />
          </mxGeometry>
        </mxCell>
        <mxCell id="O2gDyJJrCr2cwPpWaObL-121" value="fonts" style="text;html=1;align=center;verticalAlign=middle;resizable=0;points=[];autosize=1;strokeColor=none;fillColor=none;" parent="1" vertex="1">
          <mxGeometry x="-360" y="806" width="50" height="30" as="geometry" />
        </mxCell>
        <mxCell id="O2gDyJJrCr2cwPpWaObL-122" value="" style="endArrow=open;endSize=12;dashed=1;html=1;rounded=0;" parent="1" source="O2gDyJJrCr2cwPpWaObL-89" target="O2gDyJJrCr2cwPpWaObL-104" edge="1">
          <mxGeometry x="0.5" y="120" width="160" relative="1" as="geometry">
            <mxPoint x="-667" y="510" as="sourcePoint" />
            <mxPoint x="-493" y="710" as="targetPoint" />
            <mxPoint as="offset" />
          </mxGeometry>
        </mxCell>
        <mxCell id="O2gDyJJrCr2cwPpWaObL-123" value="Sprite" style="swimlane;fontStyle=1;align=center;verticalAlign=top;childLayout=stackLayout;horizontal=1;startSize=26;horizontalStack=0;resizeParent=1;resizeParentMax=0;resizeLast=0;collapsible=1;marginBottom=0;whiteSpace=wrap;html=1;" parent="1" vertex="1">
          <mxGeometry x="-320" y="400" width="280" height="190" as="geometry" />
        </mxCell>
        <mxCell id="O2gDyJJrCr2cwPpWaObL-124" value="- texture : Texture&lt;br&gt;- rotate : float" style="text;strokeColor=none;fillColor=none;align=left;verticalAlign=top;spacingLeft=4;spacingRight=4;overflow=hidden;rotatable=0;points=[[0,0.5],[1,0.5]];portConstraint=eastwest;whiteSpace=wrap;html=1;" parent="O2gDyJJrCr2cwPpWaObL-123" vertex="1">
          <mxGeometry y="26" width="280" height="34" as="geometry" />
        </mxCell>
        <mxCell id="O2gDyJJrCr2cwPpWaObL-125" value="" style="line;strokeWidth=1;fillColor=none;align=left;verticalAlign=middle;spacingTop=-1;spacingLeft=3;spacingRight=3;rotatable=0;labelPosition=right;points=[];portConstraint=eastwest;strokeColor=inherit;" parent="O2gDyJJrCr2cwPpWaObL-123" vertex="1">
          <mxGeometry y="60" width="280" height="8" as="geometry" />
        </mxCell>
        <mxCell id="O2gDyJJrCr2cwPpWaObL-126" value="+ Sprite(texture : Texture, shader : Shader, &lt;span style=&quot;white-space: pre;&quot;&gt; &lt;/span&gt;position : glm::vec2, size : glm::vec2, color : &lt;span style=&quot;white-space: pre;&quot;&gt; &lt;/span&gt;glm::vec3, rotate : float)&lt;br&gt;&lt;br&gt;+ draw()&lt;br&gt;&lt;br&gt;- intit_data()" style="text;strokeColor=none;fillColor=none;align=left;verticalAlign=top;spacingLeft=4;spacingRight=4;overflow=hidden;rotatable=0;points=[[0,0.5],[1,0.5]];portConstraint=eastwest;whiteSpace=wrap;html=1;" parent="O2gDyJJrCr2cwPpWaObL-123" vertex="1">
          <mxGeometry y="68" width="280" height="122" as="geometry" />
        </mxCell>
        <mxCell id="O2gDyJJrCr2cwPpWaObL-127" value="" style="endArrow=block;endSize=16;endFill=0;html=1;rounded=0;exitX=0.5;exitY=0;exitDx=0;exitDy=0;" parent="1" source="O2gDyJJrCr2cwPpWaObL-123" target="O2gDyJJrCr2cwPpWaObL-56" edge="1">
          <mxGeometry x="-0.375" y="-80" width="160" relative="1" as="geometry">
            <mxPoint x="-510" y="410" as="sourcePoint" />
            <mxPoint x="-570" y="350" as="targetPoint" />
            <mxPoint x="-1" as="offset" />
          </mxGeometry>
        </mxCell>
        <mxCell id="O2gDyJJrCr2cwPpWaObL-128" value="ButtonManager" style="swimlane;fontStyle=1;align=center;verticalAlign=top;childLayout=stackLayout;horizontal=1;startSize=26;horizontalStack=0;resizeParent=1;resizeParentMax=0;resizeLast=0;collapsible=1;marginBottom=0;whiteSpace=wrap;html=1;" parent="1" vertex="1">
          <mxGeometry x="-1130" y="-400" width="400" height="220" as="geometry" />
        </mxCell>
        <mxCell id="O2gDyJJrCr2cwPpWaObL-129" value="" style="line;strokeWidth=1;fillColor=none;align=left;verticalAlign=middle;spacingTop=-1;spacingLeft=3;spacingRight=3;rotatable=0;labelPosition=right;points=[];portConstraint=eastwest;strokeColor=inherit;" parent="O2gDyJJrCr2cwPpWaObL-128" vertex="1">
          <mxGeometry y="26" width="400" height="24" as="geometry" />
        </mxCell>
        <mxCell id="O2gDyJJrCr2cwPpWaObL-130" value="&lt;p style=&quot;margin: 0px 0px 0px 4px;&quot;&gt;- ButtonManager()&lt;/p&gt;&lt;p style=&quot;margin: 0px 0px 0px 4px;&quot;&gt;&lt;span style=&quot;background-color: initial;&quot;&gt;&lt;br&gt;&lt;/span&gt;&lt;/p&gt;&lt;p style=&quot;margin: 0px 0px 0px 4px;&quot;&gt;+ create(buttonName : string, function : Function, position : glm::vec2, size : glm::vec2, color : glm::vec3, rotationAngle : float, angularRadius : float)&lt;br&gt;+ get(buttonName : string) : Button&lt;/p&gt;&lt;p style=&quot;margin: 0px 0px 0px 4px;&quot;&gt;+ delete(buttonsName : string[0..n])&lt;br&gt;&lt;br&gt;&lt;br&gt;- init_data()&lt;br&gt;&lt;/p&gt;" style="text;strokeColor=none;fillColor=none;align=left;verticalAlign=top;spacingLeft=4;spacingRight=4;overflow=hidden;rotatable=0;points=[[0,0.5],[1,0.5]];portConstraint=eastwest;whiteSpace=wrap;html=1;" parent="O2gDyJJrCr2cwPpWaObL-128" vertex="1">
          <mxGeometry y="50" width="400" height="170" as="geometry" />
        </mxCell>
        <mxCell id="O2gDyJJrCr2cwPpWaObL-131" value="&lt;p style=&quot;margin:0px;margin-top:6px;text-align:center;&quot;&gt;&lt;b&gt;map&lt;/b&gt;&lt;/p&gt;&lt;hr&gt;&lt;p style=&quot;margin:0px;margin-left:8px;&quot;&gt;+ string&lt;/p&gt;&lt;p style=&quot;margin:0px;margin-left:8px;&quot;&gt;&lt;br&gt;&lt;/p&gt;" style="align=left;overflow=fill;html=1;dropTarget=0;whiteSpace=wrap;" parent="1" vertex="1">
          <mxGeometry x="-1510" y="-200" width="180" height="60" as="geometry" />
        </mxCell>
        <mxCell id="O2gDyJJrCr2cwPpWaObL-132" value="" style="shape=component;jettyWidth=8;jettyHeight=4;" parent="O2gDyJJrCr2cwPpWaObL-131" vertex="1">
          <mxGeometry x="1" width="20" height="20" relative="1" as="geometry">
            <mxPoint x="-24" y="4" as="offset" />
          </mxGeometry>
        </mxCell>
        <mxCell id="O2gDyJJrCr2cwPpWaObL-133" value="0..n" style="endArrow=open;html=1;endSize=12;startArrow=diamondThin;startSize=14;startFill=1;edgeStyle=orthogonalEdgeStyle;align=left;verticalAlign=bottom;rounded=0;exitX=0;exitY=0.25;exitDx=0;exitDy=0;entryX=0.5;entryY=0;entryDx=0;entryDy=0;" parent="1" source="O2gDyJJrCr2cwPpWaObL-128" target="O2gDyJJrCr2cwPpWaObL-131" edge="1">
          <mxGeometry x="0.9559" y="-30" relative="1" as="geometry">
            <mxPoint x="-1120" y="-130" as="sourcePoint" />
            <mxPoint x="-960" y="-130" as="targetPoint" />
            <mxPoint as="offset" />
          </mxGeometry>
        </mxCell>
        <mxCell id="O2gDyJJrCr2cwPpWaObL-134" value="buttons" style="text;html=1;align=center;verticalAlign=middle;resizable=0;points=[];autosize=1;strokeColor=none;fillColor=none;" parent="1" vertex="1">
          <mxGeometry x="-1417" y="-240" width="60" height="30" as="geometry" />
        </mxCell>
        <mxCell id="O2gDyJJrCr2cwPpWaObL-135" value="" style="endArrow=block;endFill=1;html=1;edgeStyle=orthogonalEdgeStyle;align=left;verticalAlign=top;rounded=0;exitX=0.25;exitY=1;exitDx=0;exitDy=0;" parent="1" source="O2gDyJJrCr2cwPpWaObL-131" target="O2gDyJJrCr2cwPpWaObL-68" edge="1">
          <mxGeometry x="-1" relative="1" as="geometry">
            <mxPoint x="-1460" y="180" as="sourcePoint" />
            <mxPoint x="-1300" y="180" as="targetPoint" />
          </mxGeometry>
        </mxCell>
        <mxCell id="O2gDyJJrCr2cwPpWaObL-136" value="1" style="edgeLabel;resizable=0;html=1;align=left;verticalAlign=bottom;" parent="O2gDyJJrCr2cwPpWaObL-135" connectable="0" vertex="1">
          <mxGeometry x="-1" relative="1" as="geometry">
            <mxPoint x="295" y="780" as="offset" />
          </mxGeometry>
        </mxCell>
        <mxCell id="O2gDyJJrCr2cwPpWaObL-137" value="TextManager" style="swimlane;fontStyle=1;align=center;verticalAlign=top;childLayout=stackLayout;horizontal=1;startSize=26;horizontalStack=0;resizeParent=1;resizeParentMax=0;resizeLast=0;collapsible=1;marginBottom=0;whiteSpace=wrap;html=1;" parent="1" vertex="1">
          <mxGeometry x="-690" y="-400" width="400" height="190" as="geometry" />
        </mxCell>
        <mxCell id="O2gDyJJrCr2cwPpWaObL-138" value="" style="line;strokeWidth=1;fillColor=none;align=left;verticalAlign=middle;spacingTop=-1;spacingLeft=3;spacingRight=3;rotatable=0;labelPosition=right;points=[];portConstraint=eastwest;strokeColor=inherit;" parent="O2gDyJJrCr2cwPpWaObL-137" vertex="1">
          <mxGeometry y="26" width="400" height="24" as="geometry" />
        </mxCell>
        <mxCell id="O2gDyJJrCr2cwPpWaObL-139" value="&lt;p style=&quot;margin: 0px 0px 0px 4px;&quot;&gt;- TextManager()&lt;/p&gt;&lt;p style=&quot;margin: 0px 0px 0px 4px;&quot;&gt;&lt;span style=&quot;background-color: initial;&quot;&gt;&lt;br&gt;&lt;/span&gt;&lt;/p&gt;&lt;p style=&quot;margin: 0px 0px 0px 4px;&quot;&gt;+ create(texteAreaName : string, text : string, font : Font, position :&amp;nbsp; &lt;span style=&quot;white-space: pre;&quot;&gt; &lt;/span&gt;glm::vec2, size :&amp;nbsp;&lt;span style=&quot;&quot;&gt; &lt;/span&gt;glm::vec2, &lt;span style=&quot;white-space: pre;&quot;&gt; &lt;/span&gt;color : glm::vec3)&lt;br&gt;+ get(textAreaName : string) : TextArea&lt;/p&gt;&lt;p style=&quot;margin: 0px 0px 0px 4px;&quot;&gt;+ delete(textAreasNames : string[0..n])&lt;br&gt;&lt;br&gt;- init_data()&lt;br&gt;&lt;/p&gt;" style="text;strokeColor=none;fillColor=none;align=left;verticalAlign=top;spacingLeft=4;spacingRight=4;overflow=hidden;rotatable=0;points=[[0,0.5],[1,0.5]];portConstraint=eastwest;whiteSpace=wrap;html=1;" parent="O2gDyJJrCr2cwPpWaObL-137" vertex="1">
          <mxGeometry y="50" width="400" height="140" as="geometry" />
        </mxCell>
        <mxCell id="O2gDyJJrCr2cwPpWaObL-140" value="&lt;p style=&quot;margin:0px;margin-top:6px;text-align:center;&quot;&gt;&lt;b&gt;map&lt;/b&gt;&lt;/p&gt;&lt;hr&gt;&lt;p style=&quot;margin:0px;margin-left:8px;&quot;&gt;+ string&lt;/p&gt;&lt;p style=&quot;margin:0px;margin-left:8px;&quot;&gt;&lt;br&gt;&lt;/p&gt;" style="align=left;overflow=fill;html=1;dropTarget=0;whiteSpace=wrap;" parent="1" vertex="1">
          <mxGeometry x="-540" y="-100" width="180" height="60" as="geometry" />
        </mxCell>
        <mxCell id="O2gDyJJrCr2cwPpWaObL-141" value="" style="shape=component;jettyWidth=8;jettyHeight=4;" parent="O2gDyJJrCr2cwPpWaObL-140" vertex="1">
          <mxGeometry x="1" width="20" height="20" relative="1" as="geometry">
            <mxPoint x="-24" y="4" as="offset" />
          </mxGeometry>
        </mxCell>
        <mxCell id="O2gDyJJrCr2cwPpWaObL-142" value="0..n" style="endArrow=open;html=1;endSize=12;startArrow=diamondThin;startSize=14;startFill=1;edgeStyle=orthogonalEdgeStyle;align=left;verticalAlign=bottom;rounded=0;exitX=0;exitY=0.25;exitDx=0;exitDy=0;entryX=0.5;entryY=0;entryDx=0;entryDy=0;" parent="1" source="O2gDyJJrCr2cwPpWaObL-137" target="O2gDyJJrCr2cwPpWaObL-140" edge="1">
          <mxGeometry x="0.9559" y="-30" relative="1" as="geometry">
            <mxPoint x="-597" y="-130" as="sourcePoint" />
            <mxPoint x="-437" y="-130" as="targetPoint" />
            <mxPoint as="offset" />
          </mxGeometry>
        </mxCell>
        <mxCell id="O2gDyJJrCr2cwPpWaObL-143" value="buttons" style="text;html=1;align=center;verticalAlign=middle;resizable=0;points=[];autosize=1;strokeColor=none;fillColor=none;" parent="1" vertex="1">
          <mxGeometry x="-894" y="-240" width="60" height="30" as="geometry" />
        </mxCell>
        <mxCell id="O2gDyJJrCr2cwPpWaObL-146" value="" style="endArrow=block;endFill=1;html=1;edgeStyle=orthogonalEdgeStyle;align=left;verticalAlign=top;rounded=0;exitX=0.5;exitY=1;exitDx=0;exitDy=0;entryX=0.75;entryY=0;entryDx=0;entryDy=0;" parent="1" source="O2gDyJJrCr2cwPpWaObL-140" target="O2gDyJJrCr2cwPpWaObL-86" edge="1">
          <mxGeometry x="-1" relative="1" as="geometry">
            <mxPoint x="-1050" y="-80" as="sourcePoint" />
            <mxPoint x="-890" y="-80" as="targetPoint" />
          </mxGeometry>
        </mxCell>
        <mxCell id="O2gDyJJrCr2cwPpWaObL-147" value="1" style="edgeLabel;resizable=0;html=1;align=left;verticalAlign=bottom;" parent="O2gDyJJrCr2cwPpWaObL-146" connectable="0" vertex="1">
          <mxGeometry x="-1" relative="1" as="geometry">
            <mxPoint x="10" y="430" as="offset" />
          </mxGeometry>
        </mxCell>
        <mxCell id="O2gDyJJrCr2cwPpWaObL-148" value="SpriteManager" style="swimlane;fontStyle=1;align=center;verticalAlign=top;childLayout=stackLayout;horizontal=1;startSize=26;horizontalStack=0;resizeParent=1;resizeParentMax=0;resizeLast=0;collapsible=1;marginBottom=0;whiteSpace=wrap;html=1;" parent="1" vertex="1">
          <mxGeometry x="-260" y="-400" width="400" height="190" as="geometry" />
        </mxCell>
        <mxCell id="O2gDyJJrCr2cwPpWaObL-149" value="" style="line;strokeWidth=1;fillColor=none;align=left;verticalAlign=middle;spacingTop=-1;spacingLeft=3;spacingRight=3;rotatable=0;labelPosition=right;points=[];portConstraint=eastwest;strokeColor=inherit;" parent="O2gDyJJrCr2cwPpWaObL-148" vertex="1">
          <mxGeometry y="26" width="400" height="24" as="geometry" />
        </mxCell>
        <mxCell id="O2gDyJJrCr2cwPpWaObL-150" value="&lt;p style=&quot;margin: 0px 0px 0px 4px;&quot;&gt;- TextManager()&lt;/p&gt;&lt;p style=&quot;margin: 0px 0px 0px 4px;&quot;&gt;&lt;span style=&quot;background-color: initial;&quot;&gt;&lt;br&gt;&lt;/span&gt;&lt;/p&gt;&lt;p style=&quot;margin: 0px 0px 0px 4px;&quot;&gt;+ create(spriteName : string, image : Image,&amp;nbsp; position : glm::vec2, size : &lt;span style=&quot;white-space: pre;&quot;&gt; &lt;/span&gt;glm::vec2, color :&amp;nbsp;&lt;span style=&quot;&quot;&gt; &lt;/span&gt;glm::vec3, rotate : float)&lt;br&gt;+ get(spriteName : string) : Sprite&lt;/p&gt;&lt;p style=&quot;margin: 0px 0px 0px 4px;&quot;&gt;+ delete(SpritesNames : string[0..n])&lt;br&gt;&lt;br&gt;- init_data()&lt;br&gt;&lt;/p&gt;" style="text;strokeColor=none;fillColor=none;align=left;verticalAlign=top;spacingLeft=4;spacingRight=4;overflow=hidden;rotatable=0;points=[[0,0.5],[1,0.5]];portConstraint=eastwest;whiteSpace=wrap;html=1;" parent="O2gDyJJrCr2cwPpWaObL-148" vertex="1">
          <mxGeometry y="50" width="400" height="140" as="geometry" />
        </mxCell>
        <mxCell id="O2gDyJJrCr2cwPpWaObL-151" value="&lt;p style=&quot;margin:0px;margin-top:6px;text-align:center;&quot;&gt;&lt;b&gt;map&lt;/b&gt;&lt;/p&gt;&lt;hr&gt;&lt;p style=&quot;margin:0px;margin-left:8px;&quot;&gt;+ string&lt;/p&gt;&lt;p style=&quot;margin:0px;margin-left:8px;&quot;&gt;&lt;br&gt;&lt;/p&gt;" style="align=left;overflow=fill;html=1;dropTarget=0;whiteSpace=wrap;" parent="1" vertex="1">
          <mxGeometry x="-240" y="-120" width="180" height="60" as="geometry" />
        </mxCell>
        <mxCell id="O2gDyJJrCr2cwPpWaObL-152" value="" style="shape=component;jettyWidth=8;jettyHeight=4;" parent="O2gDyJJrCr2cwPpWaObL-151" vertex="1">
          <mxGeometry x="1" width="20" height="20" relative="1" as="geometry">
            <mxPoint x="-24" y="4" as="offset" />
          </mxGeometry>
        </mxCell>
        <mxCell id="O2gDyJJrCr2cwPpWaObL-153" value="0..n" style="endArrow=open;html=1;endSize=12;startArrow=diamondThin;startSize=14;startFill=1;edgeStyle=orthogonalEdgeStyle;align=left;verticalAlign=bottom;rounded=0;exitX=0;exitY=0.5;exitDx=0;exitDy=0;entryX=0;entryY=0.5;entryDx=0;entryDy=0;" parent="1" source="O2gDyJJrCr2cwPpWaObL-150" target="O2gDyJJrCr2cwPpWaObL-151" edge="1">
          <mxGeometry x="0.76" y="10" relative="1" as="geometry">
            <mxPoint x="-680" y="-342" as="sourcePoint" />
            <mxPoint x="-440" y="-90" as="targetPoint" />
            <mxPoint as="offset" />
            <Array as="points">
              <mxPoint x="-280" y="-280" />
              <mxPoint x="-280" y="-90" />
            </Array>
          </mxGeometry>
        </mxCell>
        <mxCell id="O2gDyJJrCr2cwPpWaObL-154" value="textAreas" style="text;html=1;align=center;verticalAlign=middle;resizable=0;points=[];autosize=1;strokeColor=none;fillColor=none;" parent="1" vertex="1">
          <mxGeometry x="-448" y="-130" width="70" height="30" as="geometry" />
        </mxCell>
        <mxCell id="O2gDyJJrCr2cwPpWaObL-155" value="sprites" style="text;html=1;align=center;verticalAlign=middle;resizable=0;points=[];autosize=1;strokeColor=none;fillColor=none;" parent="1" vertex="1">
          <mxGeometry x="-300" y="-85" width="60" height="30" as="geometry" />
        </mxCell>
        <mxCell id="O2gDyJJrCr2cwPpWaObL-156" value="" style="endArrow=block;endFill=1;html=1;edgeStyle=orthogonalEdgeStyle;align=left;verticalAlign=top;rounded=0;exitX=0.5;exitY=1;exitDx=0;exitDy=0;" parent="1" source="O2gDyJJrCr2cwPpWaObL-151" target="O2gDyJJrCr2cwPpWaObL-123" edge="1">
          <mxGeometry x="-1" relative="1" as="geometry">
            <mxPoint x="-240" y="70" as="sourcePoint" />
            <mxPoint x="-80" y="70" as="targetPoint" />
          </mxGeometry>
        </mxCell>
        <mxCell id="O2gDyJJrCr2cwPpWaObL-157" value="1" style="edgeLabel;resizable=0;html=1;align=left;verticalAlign=bottom;" parent="O2gDyJJrCr2cwPpWaObL-156" connectable="0" vertex="1">
          <mxGeometry x="-1" relative="1" as="geometry">
            <mxPoint x="-20" y="450" as="offset" />
          </mxGeometry>
        </mxCell>
        <mxCell id="O2gDyJJrCr2cwPpWaObL-168" value="WidgetManager" style="swimlane;fontStyle=1;align=center;verticalAlign=top;childLayout=stackLayout;horizontal=1;startSize=26;horizontalStack=0;resizeParent=1;resizeParentMax=0;resizeLast=0;collapsible=1;marginBottom=0;whiteSpace=wrap;html=1;" parent="1" vertex="1">
          <mxGeometry x="-720" y="-880" width="480" height="250" as="geometry" />
        </mxCell>
        <mxCell id="O2gDyJJrCr2cwPpWaObL-169" value="- tags : string[0..n]" style="text;strokeColor=none;fillColor=none;align=left;verticalAlign=top;spacingLeft=4;spacingRight=4;overflow=hidden;rotatable=0;points=[[0,0.5],[1,0.5]];portConstraint=eastwest;whiteSpace=wrap;html=1;" parent="O2gDyJJrCr2cwPpWaObL-168" vertex="1">
          <mxGeometry y="26" width="480" height="26" as="geometry" />
        </mxCell>
        <mxCell id="O2gDyJJrCr2cwPpWaObL-170" value="" style="line;strokeWidth=1;fillColor=none;align=left;verticalAlign=middle;spacingTop=-1;spacingLeft=3;spacingRight=3;rotatable=0;labelPosition=right;points=[];portConstraint=eastwest;strokeColor=inherit;" parent="O2gDyJJrCr2cwPpWaObL-168" vertex="1">
          <mxGeometry y="52" width="480" height="8" as="geometry" />
        </mxCell>
        <mxCell id="O2gDyJJrCr2cwPpWaObL-171" value="- WidgetManager()&lt;br&gt;&lt;br&gt;+ create_tag(tagName : string)&lt;br&gt;+ get_tags() : string[0..n]&lt;br&gt;&lt;br&gt;+ get_current_tag() : string&lt;br&gt;+ set_current_tag(tagName : string)&lt;br&gt;&lt;br&gt;+ bind(widget : Widget, key : KeyboardKey, action : Action, function : Function)&lt;br&gt;+ bind(widget : Widget, input : MouseInput, function : Function)&lt;br&gt;+ bind(widget : Widget, button : MouseButton, function : Function)&lt;br&gt;+ unbind(widget : Widget[0..n])" style="text;strokeColor=none;fillColor=none;align=left;verticalAlign=top;spacingLeft=4;spacingRight=4;overflow=hidden;rotatable=0;points=[[0,0.5],[1,0.5]];portConstraint=eastwest;whiteSpace=wrap;html=1;" parent="O2gDyJJrCr2cwPpWaObL-168" vertex="1">
          <mxGeometry y="60" width="480" height="190" as="geometry" />
        </mxCell>
        <mxCell id="O2gDyJJrCr2cwPpWaObL-172" value="&lt;p style=&quot;margin:0px;margin-top:6px;text-align:center;&quot;&gt;&lt;b&gt;map&lt;/b&gt;&lt;/p&gt;&lt;hr&gt;&lt;p style=&quot;margin:0px;margin-left:8px;&quot;&gt;+ function[0..1]&lt;/p&gt;" style="align=left;overflow=fill;html=1;dropTarget=0;whiteSpace=wrap;" parent="1" vertex="1">
          <mxGeometry x="920" y="1950" width="180" height="60" as="geometry" />
        </mxCell>
        <mxCell id="O2gDyJJrCr2cwPpWaObL-173" value="" style="shape=component;jettyWidth=8;jettyHeight=4;" parent="O2gDyJJrCr2cwPpWaObL-172" vertex="1">
          <mxGeometry x="1" width="20" height="20" relative="1" as="geometry">
            <mxPoint x="-24" y="4" as="offset" />
          </mxGeometry>
        </mxCell>
        <mxCell id="O2gDyJJrCr2cwPpWaObL-174" value="" style="endArrow=block;endFill=1;html=1;edgeStyle=orthogonalEdgeStyle;align=left;verticalAlign=top;rounded=0;exitX=0.5;exitY=1;exitDx=0;exitDy=0;entryX=0.5;entryY=0;entryDx=0;entryDy=0;" parent="1" target="O2gDyJJrCr2cwPpWaObL-172" edge="1">
          <mxGeometry x="-0.4135" y="-50" relative="1" as="geometry">
            <mxPoint x="1010" y="1900" as="sourcePoint" />
            <mxPoint x="1200" y="2090" as="targetPoint" />
            <mxPoint as="offset" />
          </mxGeometry>
        </mxCell>
        <mxCell id="O2gDyJJrCr2cwPpWaObL-175" value="3" style="edgeLabel;resizable=0;html=1;align=left;verticalAlign=bottom;" parent="O2gDyJJrCr2cwPpWaObL-174" connectable="0" vertex="1">
          <mxGeometry x="-1" relative="1" as="geometry">
            <mxPoint x="10" y="50" as="offset" />
          </mxGeometry>
        </mxCell>
        <mxCell id="O2gDyJJrCr2cwPpWaObL-178" value="" style="edgeStyle=orthogonalEdgeStyle;rounded=0;orthogonalLoop=1;jettySize=auto;html=1;" parent="1" source="O2gDyJJrCr2cwPpWaObL-176" target="O2gDyJJrCr2cwPpWaObL-172" edge="1">
          <mxGeometry relative="1" as="geometry" />
        </mxCell>
        <mxCell id="O2gDyJJrCr2cwPpWaObL-176" value="&lt;p style=&quot;margin:0px;margin-top:6px;text-align:center;&quot;&gt;&lt;b&gt;map&lt;/b&gt;&lt;/p&gt;&lt;hr&gt;&lt;p style=&quot;margin:0px;margin-left:8px;&quot;&gt;&lt;br&gt;&lt;/p&gt;&lt;p style=&quot;margin:0px;margin-left:8px;&quot;&gt;&lt;br&gt;&lt;/p&gt;" style="align=left;overflow=fill;html=1;dropTarget=0;whiteSpace=wrap;" parent="1" vertex="1">
          <mxGeometry x="920" y="1840" width="180" height="60" as="geometry" />
        </mxCell>
        <mxCell id="O2gDyJJrCr2cwPpWaObL-177" value="" style="shape=component;jettyWidth=8;jettyHeight=4;" parent="O2gDyJJrCr2cwPpWaObL-176" vertex="1">
          <mxGeometry x="1" width="20" height="20" relative="1" as="geometry">
            <mxPoint x="-24" y="4" as="offset" />
          </mxGeometry>
        </mxCell>
        <mxCell id="O2gDyJJrCr2cwPpWaObL-179" value="&lt;p style=&quot;margin:0px;margin-top:6px;text-align:center;&quot;&gt;&lt;b&gt;map&lt;/b&gt;&lt;/p&gt;&lt;hr&gt;&lt;p style=&quot;margin:0px;margin-left:8px;&quot;&gt;&lt;br&gt;&lt;/p&gt;&lt;p style=&quot;margin:0px;margin-left:8px;&quot;&gt;&lt;br&gt;&lt;/p&gt;" style="align=left;overflow=fill;html=1;dropTarget=0;whiteSpace=wrap;" parent="1" vertex="1">
          <mxGeometry x="1290" y="1800" width="180" height="60" as="geometry" />
        </mxCell>
        <mxCell id="O2gDyJJrCr2cwPpWaObL-180" value="" style="shape=component;jettyWidth=8;jettyHeight=4;" parent="O2gDyJJrCr2cwPpWaObL-179" vertex="1">
          <mxGeometry x="1" width="20" height="20" relative="1" as="geometry">
            <mxPoint x="-24" y="4" as="offset" />
          </mxGeometry>
        </mxCell>
        <mxCell id="O2gDyJJrCr2cwPpWaObL-181" value="" style="edgeStyle=orthogonalEdgeStyle;rounded=0;orthogonalLoop=1;jettySize=auto;html=1;exitX=0.5;exitY=1;exitDx=0;exitDy=0;entryX=0.5;entryY=0;entryDx=0;entryDy=0;" parent="1" source="O2gDyJJrCr2cwPpWaObL-179" target="JY-SjFJ4gWz8gs3kID2c-98" edge="1">
          <mxGeometry relative="1" as="geometry">
            <mxPoint x="1379.5" y="1870" as="sourcePoint" />
            <mxPoint x="1379.5" y="1920" as="targetPoint" />
          </mxGeometry>
        </mxCell>
        <mxCell id="O2gDyJJrCr2cwPpWaObL-182" value="" style="endArrow=block;endFill=1;html=1;edgeStyle=orthogonalEdgeStyle;align=left;verticalAlign=top;rounded=0;exitX=0;exitY=0.5;exitDx=0;exitDy=0;entryX=0.5;entryY=0;entryDx=0;entryDy=0;" parent="1" source="JY-SjFJ4gWz8gs3kID2c-98" target="JY-SjFJ4gWz8gs3kID2c-66" edge="1">
          <mxGeometry x="-1" relative="1" as="geometry">
            <mxPoint x="1700" y="1880" as="sourcePoint" />
            <mxPoint x="1520" y="2130" as="targetPoint" />
          </mxGeometry>
        </mxCell>
        <mxCell id="O2gDyJJrCr2cwPpWaObL-183" value="1" style="edgeLabel;resizable=0;html=1;align=left;verticalAlign=bottom;" parent="O2gDyJJrCr2cwPpWaObL-182" connectable="0" vertex="1">
          <mxGeometry x="-1" relative="1" as="geometry">
            <mxPoint x="-130" y="70" as="offset" />
          </mxGeometry>
        </mxCell>
        <mxCell id="O2gDyJJrCr2cwPpWaObL-184" value="" style="endArrow=block;endFill=1;html=1;edgeStyle=orthogonalEdgeStyle;align=left;verticalAlign=top;rounded=0;exitX=0.5;exitY=1;exitDx=0;exitDy=0;entryX=0;entryY=0.25;entryDx=0;entryDy=0;" parent="1" source="O2gDyJJrCr2cwPpWaObL-172" target="JY-SjFJ4gWz8gs3kID2c-66" edge="1">
          <mxGeometry x="-1" relative="1" as="geometry">
            <mxPoint x="1710" y="1890" as="sourcePoint" />
            <mxPoint x="1530" y="2140" as="targetPoint" />
          </mxGeometry>
        </mxCell>
        <mxCell id="O2gDyJJrCr2cwPpWaObL-185" value="1" style="edgeLabel;resizable=0;html=1;align=left;verticalAlign=bottom;" parent="O2gDyJJrCr2cwPpWaObL-184" connectable="0" vertex="1">
          <mxGeometry x="-1" relative="1" as="geometry">
            <mxPoint x="60" y="80" as="offset" />
          </mxGeometry>
        </mxCell>
        <mxCell id="O2gDyJJrCr2cwPpWaObL-186" value="&lt;p style=&quot;margin:0px;margin-top:6px;text-align:center;&quot;&gt;&lt;b&gt;map&lt;/b&gt;&lt;/p&gt;&lt;hr&gt;&lt;p style=&quot;margin:0px;margin-left:8px;&quot;&gt;+ string&lt;/p&gt;&lt;p style=&quot;margin:0px;margin-left:8px;&quot;&gt;&lt;br&gt;&lt;/p&gt;" style="align=left;overflow=fill;html=1;dropTarget=0;whiteSpace=wrap;" parent="1" vertex="1">
          <mxGeometry x="-1040" y="-810" width="180" height="60" as="geometry" />
        </mxCell>
        <mxCell id="O2gDyJJrCr2cwPpWaObL-187" value="" style="shape=component;jettyWidth=8;jettyHeight=4;" parent="O2gDyJJrCr2cwPpWaObL-186" vertex="1">
          <mxGeometry x="1" width="20" height="20" relative="1" as="geometry">
            <mxPoint x="-24" y="4" as="offset" />
          </mxGeometry>
        </mxCell>
        <mxCell id="O2gDyJJrCr2cwPpWaObL-192" value="0..n" style="endArrow=open;html=1;endSize=12;startArrow=diamondThin;startSize=14;startFill=1;edgeStyle=orthogonalEdgeStyle;align=left;verticalAlign=bottom;rounded=0;" parent="1" target="O2gDyJJrCr2cwPpWaObL-186" edge="1">
          <mxGeometry x="0.7567" y="-10" relative="1" as="geometry">
            <mxPoint x="-720" y="-783" as="sourcePoint" />
            <mxPoint x="-1410" y="-190" as="targetPoint" />
            <mxPoint as="offset" />
          </mxGeometry>
        </mxCell>
        <mxCell id="O2gDyJJrCr2cwPpWaObL-193" value="widgets" style="text;html=1;align=center;verticalAlign=middle;resizable=0;points=[];autosize=1;strokeColor=none;fillColor=none;" parent="1" vertex="1">
          <mxGeometry x="-860" y="-780" width="60" height="30" as="geometry" />
        </mxCell>
        <mxCell id="O2gDyJJrCr2cwPpWaObL-194" value="0..n" style="endArrow=open;html=1;endSize=12;startArrow=diamondThin;startSize=14;startFill=0;edgeStyle=orthogonalEdgeStyle;align=left;verticalAlign=bottom;rounded=0;exitX=0.5;exitY=1;exitDx=0;exitDy=0;entryX=0;entryY=0.5;entryDx=0;entryDy=0;" parent="1" source="O2gDyJJrCr2cwPpWaObL-186" target="6t-lZyrEfUoMIXOTrXIW-2" edge="1">
          <mxGeometry x="0.6923" y="-30" relative="1" as="geometry">
            <mxPoint x="-770" y="-500" as="sourcePoint" />
            <mxPoint x="-610" y="-500" as="targetPoint" />
            <Array as="points">
              <mxPoint x="-950" y="-580" />
            </Array>
            <mxPoint as="offset" />
          </mxGeometry>
        </mxCell>
        <mxCell id="6t-lZyrEfUoMIXOTrXIW-2" value="&lt;p style=&quot;margin:0px;margin-top:6px;text-align:center;&quot;&gt;&lt;b&gt;map&lt;/b&gt;&lt;/p&gt;&lt;hr&gt;&lt;p style=&quot;margin:0px;margin-left:8px;&quot;&gt;+ (KekboardKey, Action)/MouseInput/(MouseButton, Action[0..n]&lt;/p&gt;&lt;p style=&quot;margin:0px;margin-left:8px;&quot;&gt;&lt;br&gt;&lt;/p&gt;" style="align=left;overflow=fill;html=1;dropTarget=0;whiteSpace=wrap;" vertex="1" parent="1">
          <mxGeometry x="-840" y="-610" width="250" height="80" as="geometry" />
        </mxCell>
        <mxCell id="6t-lZyrEfUoMIXOTrXIW-3" value="" style="shape=component;jettyWidth=8;jettyHeight=4;" vertex="1" parent="6t-lZyrEfUoMIXOTrXIW-2">
          <mxGeometry x="1" width="20" height="20" relative="1" as="geometry">
            <mxPoint x="-24" y="4" as="offset" />
          </mxGeometry>
        </mxCell>
        <mxCell id="6t-lZyrEfUoMIXOTrXIW-5" value="" style="endArrow=block;endFill=1;html=1;edgeStyle=orthogonalEdgeStyle;align=left;verticalAlign=top;rounded=0;exitX=0.5;exitY=1;exitDx=0;exitDy=0;entryX=0.25;entryY=0;entryDx=0;entryDy=0;" edge="1" parent="1" source="6t-lZyrEfUoMIXOTrXIW-2" target="O2gDyJJrCr2cwPpWaObL-53">
          <mxGeometry x="-1" relative="1" as="geometry">
            <mxPoint x="-740" y="-500" as="sourcePoint" />
            <mxPoint x="-580" y="-500" as="targetPoint" />
          </mxGeometry>
        </mxCell>
        <mxCell id="6t-lZyrEfUoMIXOTrXIW-6" value="1" style="edgeLabel;resizable=0;html=1;align=left;verticalAlign=bottom;" connectable="0" vertex="1" parent="6t-lZyrEfUoMIXOTrXIW-5">
          <mxGeometry x="-1" relative="1" as="geometry">
            <mxPoint x="35" y="660" as="offset" />
          </mxGeometry>
        </mxCell>
        <mxCell id="6t-lZyrEfUoMIXOTrXIW-10" value="WINDOW" style="shape=umlFrame;whiteSpace=wrap;html=1;pointerEvents=0;fillColor=#dae8fc;strokeColor=#6c8ebf;gradientColor=#7ea6e0;" vertex="1" parent="1">
          <mxGeometry x="825" y="-1150" width="1650" height="1130" as="geometry" />
        </mxCell>
        <mxCell id="6t-lZyrEfUoMIXOTrXIW-11" value="Window" style="swimlane;fontStyle=1;align=center;verticalAlign=top;childLayout=stackLayout;horizontal=1;startSize=26;horizontalStack=0;resizeParent=1;resizeParentMax=0;resizeLast=0;collapsible=1;marginBottom=0;whiteSpace=wrap;html=1;" vertex="1" parent="1">
          <mxGeometry x="1365" y="-629" width="310" height="290" as="geometry" />
        </mxCell>
        <mxCell id="6t-lZyrEfUoMIXOTrXIW-12" value="- name : string&lt;br&gt;- window : GLFWwindow&lt;br&gt;- size : glm::vec2&lt;br&gt;- position : glm::vec2" style="text;strokeColor=none;fillColor=none;align=left;verticalAlign=top;spacingLeft=4;spacingRight=4;overflow=hidden;rotatable=0;points=[[0,0.5],[1,0.5]];portConstraint=eastwest;whiteSpace=wrap;html=1;" vertex="1" parent="6t-lZyrEfUoMIXOTrXIW-11">
          <mxGeometry y="26" width="310" height="64" as="geometry" />
        </mxCell>
        <mxCell id="6t-lZyrEfUoMIXOTrXIW-13" value="" style="line;strokeWidth=1;fillColor=none;align=left;verticalAlign=middle;spacingTop=-1;spacingLeft=3;spacingRight=3;rotatable=0;labelPosition=right;points=[];portConstraint=eastwest;strokeColor=inherit;" vertex="1" parent="6t-lZyrEfUoMIXOTrXIW-11">
          <mxGeometry y="90" width="310" height="8" as="geometry" />
        </mxCell>
        <mxCell id="6t-lZyrEfUoMIXOTrXIW-14" value="+ Window(name : string, size : glm::vec2, logo : Image)&lt;br&gt;&lt;br&gt;+ get_size() : glm::vec2&lt;br&gt;+ set_size(newSize : glm::vec2)&lt;br&gt;+ set_full_screen()&lt;br&gt;&lt;br&gt;+ get_position() : glm::vec2&lt;br&gt;+ set_position(newPosition : glm::vec2)&lt;br&gt;&lt;br&gt;+ set_attributes(option : OptionWindow, state : bool)&lt;br&gt;&lt;br&gt;- size_callback()" style="text;strokeColor=none;fillColor=none;align=left;verticalAlign=top;spacingLeft=4;spacingRight=4;overflow=hidden;rotatable=0;points=[[0,0.5],[1,0.5]];portConstraint=eastwest;whiteSpace=wrap;html=1;" vertex="1" parent="6t-lZyrEfUoMIXOTrXIW-11">
          <mxGeometry y="98" width="310" height="192" as="geometry" />
        </mxCell>
        <mxCell id="6t-lZyrEfUoMIXOTrXIW-16" value="WindowManager" style="swimlane;fontStyle=1;align=center;verticalAlign=top;childLayout=stackLayout;horizontal=1;startSize=26;horizontalStack=0;resizeParent=1;resizeParentMax=0;resizeLast=0;collapsible=1;marginBottom=0;whiteSpace=wrap;html=1;" vertex="1" parent="1">
          <mxGeometry x="1400" y="-918" width="280" height="200" as="geometry" />
        </mxCell>
        <mxCell id="6t-lZyrEfUoMIXOTrXIW-17" value="&lt;br&gt;" style="text;strokeColor=none;fillColor=none;align=left;verticalAlign=top;spacingLeft=4;spacingRight=4;overflow=hidden;rotatable=0;points=[[0,0.5],[1,0.5]];portConstraint=eastwest;whiteSpace=wrap;html=1;" vertex="1" parent="6t-lZyrEfUoMIXOTrXIW-16">
          <mxGeometry y="26" width="280" height="26" as="geometry" />
        </mxCell>
        <mxCell id="6t-lZyrEfUoMIXOTrXIW-18" value="" style="line;strokeWidth=1;fillColor=none;align=left;verticalAlign=middle;spacingTop=-1;spacingLeft=3;spacingRight=3;rotatable=0;labelPosition=right;points=[];portConstraint=eastwest;strokeColor=inherit;" vertex="1" parent="6t-lZyrEfUoMIXOTrXIW-16">
          <mxGeometry y="52" width="280" height="8" as="geometry" />
        </mxCell>
        <mxCell id="6t-lZyrEfUoMIXOTrXIW-19" value="- WindowManager()&lt;br&gt;&lt;br&gt;+ create(windowName : string, size : glm::vec2, logo : Image)&lt;br&gt;+ get(windowName : string)&lt;br&gt;+ delete(windowName : string[0..n])&lt;br&gt;&lt;br&gt;+ get_monitor_sized() : glm::vec2" style="text;strokeColor=none;fillColor=none;align=left;verticalAlign=top;spacingLeft=4;spacingRight=4;overflow=hidden;rotatable=0;points=[[0,0.5],[1,0.5]];portConstraint=eastwest;whiteSpace=wrap;html=1;" vertex="1" parent="6t-lZyrEfUoMIXOTrXIW-16">
          <mxGeometry y="60" width="280" height="140" as="geometry" />
        </mxCell>
        <mxCell id="6t-lZyrEfUoMIXOTrXIW-20" value="&amp;lt;&amp;lt;&amp;lt;enumeration&amp;gt;&amp;gt;&amp;gt;&lt;br&gt;WindowOption" style="swimlane;fontStyle=0;childLayout=stackLayout;horizontal=1;startSize=30;fillColor=none;horizontalStack=0;resizeParent=1;resizeParentMax=0;resizeLast=0;collapsible=1;marginBottom=0;whiteSpace=wrap;html=1;" vertex="1" parent="1">
          <mxGeometry x="1890" y="-590" width="140" height="190" as="geometry" />
        </mxCell>
        <mxCell id="6t-lZyrEfUoMIXOTrXIW-21" value="RESIZABLE&lt;br&gt;VISIBLE&lt;br&gt;DECORATED&lt;br&gt;FOCUSED&lt;br&gt;AUTO_ICONIFY&lt;br&gt;FLOATING&lt;br&gt;MAXIMAIZED&lt;br&gt;CENTER_CURSOR&lt;br&gt;FOCUS_ON_SHOW&lt;br&gt;SCALE_TO_MONITOR" style="text;strokeColor=none;fillColor=none;align=left;verticalAlign=top;spacingLeft=4;spacingRight=4;overflow=hidden;rotatable=0;points=[[0,0.5],[1,0.5]];portConstraint=eastwest;whiteSpace=wrap;html=1;" vertex="1" parent="6t-lZyrEfUoMIXOTrXIW-20">
          <mxGeometry y="30" width="140" height="160" as="geometry" />
        </mxCell>
        <mxCell id="6t-lZyrEfUoMIXOTrXIW-22" value="" style="endArrow=open;endSize=12;dashed=1;html=1;rounded=0;" edge="1" parent="1" source="6t-lZyrEfUoMIXOTrXIW-14" target="6t-lZyrEfUoMIXOTrXIW-21">
          <mxGeometry y="60" width="160" relative="1" as="geometry">
            <mxPoint x="1690" y="-450" as="sourcePoint" />
            <mxPoint x="1850" y="-450" as="targetPoint" />
            <mxPoint as="offset" />
          </mxGeometry>
        </mxCell>
        <mxCell id="6t-lZyrEfUoMIXOTrXIW-24" value="&lt;p style=&quot;margin:0px;margin-top:6px;text-align:center;&quot;&gt;&lt;b&gt;map&lt;/b&gt;&lt;/p&gt;&lt;hr&gt;&lt;p style=&quot;margin:0px;margin-left:8px;&quot;&gt;+ string&lt;/p&gt;&lt;p style=&quot;margin:0px;margin-left:8px;&quot;&gt;&lt;br&gt;&lt;/p&gt;" style="align=left;overflow=fill;html=1;dropTarget=0;whiteSpace=wrap;" vertex="1" parent="1">
          <mxGeometry x="1070" y="-810" width="180" height="60" as="geometry" />
        </mxCell>
        <mxCell id="6t-lZyrEfUoMIXOTrXIW-25" value="" style="shape=component;jettyWidth=8;jettyHeight=4;" vertex="1" parent="6t-lZyrEfUoMIXOTrXIW-24">
          <mxGeometry x="1" width="20" height="20" relative="1" as="geometry">
            <mxPoint x="-24" y="4" as="offset" />
          </mxGeometry>
        </mxCell>
        <mxCell id="6t-lZyrEfUoMIXOTrXIW-26" value="0..n" style="endArrow=open;html=1;endSize=12;startArrow=diamondThin;startSize=14;startFill=1;edgeStyle=orthogonalEdgeStyle;align=left;verticalAlign=bottom;rounded=0;entryX=0.5;entryY=0;entryDx=0;entryDy=0;" edge="1" parent="1" source="6t-lZyrEfUoMIXOTrXIW-17" target="6t-lZyrEfUoMIXOTrXIW-24">
          <mxGeometry x="0.9353" y="10" relative="1" as="geometry">
            <mxPoint x="1310" y="-770" as="sourcePoint" />
            <mxPoint x="1470" y="-770" as="targetPoint" />
            <mxPoint as="offset" />
          </mxGeometry>
        </mxCell>
        <mxCell id="6t-lZyrEfUoMIXOTrXIW-27" value="windows" style="text;html=1;align=center;verticalAlign=middle;resizable=0;points=[];autosize=1;strokeColor=none;fillColor=none;" vertex="1" parent="1">
          <mxGeometry x="1090" y="-840" width="70" height="30" as="geometry" />
        </mxCell>
        <mxCell id="6t-lZyrEfUoMIXOTrXIW-28" value="" style="endArrow=block;endFill=1;html=1;edgeStyle=orthogonalEdgeStyle;align=left;verticalAlign=top;rounded=0;exitX=0.5;exitY=1;exitDx=0;exitDy=0;" edge="1" parent="1" source="6t-lZyrEfUoMIXOTrXIW-24" target="6t-lZyrEfUoMIXOTrXIW-11">
          <mxGeometry x="-1" relative="1" as="geometry">
            <mxPoint x="1290" y="-630" as="sourcePoint" />
            <mxPoint x="1450" y="-630" as="targetPoint" />
          </mxGeometry>
        </mxCell>
        <mxCell id="6t-lZyrEfUoMIXOTrXIW-29" value="1" style="edgeLabel;resizable=0;html=1;align=left;verticalAlign=bottom;" connectable="0" vertex="1" parent="6t-lZyrEfUoMIXOTrXIW-28">
          <mxGeometry x="-1" relative="1" as="geometry">
            <mxPoint x="340" y="110" as="offset" />
          </mxGeometry>
        </mxCell>
        <mxCell id="6t-lZyrEfUoMIXOTrXIW-30" value="&lt;br&gt;&lt;br&gt;+ init()&lt;br&gt;+ end()&lt;br&gt;&lt;br&gt;+ after(time : int, function : Function)" style="verticalAlign=top;align=left;spacingTop=8;spacingLeft=2;spacingRight=12;shape=cube;size=10;direction=south;fontStyle=4;html=1;whiteSpace=wrap;" vertex="1" parent="1">
          <mxGeometry x="440" y="160" width="280" height="120" as="geometry" />
        </mxCell>
        <mxCell id="6t-lZyrEfUoMIXOTrXIW-31" value="1" style="endArrow=open;html=1;endSize=12;startArrow=diamondThin;startSize=14;startFill=1;edgeStyle=orthogonalEdgeStyle;align=left;verticalAlign=bottom;rounded=0;exitX=1;exitY=0.5;exitDx=0;exitDy=0;entryX=0.5;entryY=0;entryDx=0;entryDy=0;" edge="1" parent="1" source="O2gDyJJrCr2cwPpWaObL-176" target="JY-SjFJ4gWz8gs3kID2c-68">
          <mxGeometry x="-1" y="3" relative="1" as="geometry">
            <mxPoint x="1090" y="1800" as="sourcePoint" />
            <mxPoint x="1250" y="1800" as="targetPoint" />
          </mxGeometry>
        </mxCell>
      </root>
    </mxGraphModel>
  </diagram>
</mxfile>
